<svg xmlns="http://www.w3.org/2000/svg" xmlns:xlink="http://www.w3.org/1999/xlink" xmlns:lucid="lucid" width="1043" height="432.51"><g transform="translate(-1038.5 -383.7447916666667)" lucid:page-tab-id="0_0"><path d="M1209.26 400l.12 1.48H1041.5v-2.96h167.88zm210.74 1.48h-149.38l.12-1.48-.12-1.48H1420z" stroke="#ccc" stroke-width=".05" fill="#ccc"/><path d="M1041.54 401.48H1040v-2.96h1.54zM1421.47 398.52H1440v2.96h-18.53V410h-2.94v-20h2.94z" stroke="#ccc" stroke-width=".05" fill="#ccc"/><path d="M1210.77 400a14.76 14.76 0 0 1 14.75-14.75h28.96a14.76 14.76 0 0 1 14.75 14.75 14.76 14.76 0 0 1-14.75 14.75h-28.96a14.76 14.76 0 0 1-14.75-14.75z" stroke="#ccc" stroke-width="3" fill="none"/><use xlink:href="#a" transform="matrix(1,0,0,1,1222.7690972222222,389.2447916666667) translate(0 17.22222222222222)"/><path d="M1203.36 480l.1 1.48H1041.5v-2.96h161.97zm218.4 1.48h-145.23l.1-1.48-.1-1.48h145.24z" stroke="#ccc" stroke-width=".05" fill="#ccc"/><path d="M1041.54 481.48H1040v-2.96h1.54zM1440 471.32l-14.42 7.2h13.75v2.96h-13.75l14.4 7.2-1.3 2.64-20-10 .65-1.32-.66-1.32 20-10z" stroke="#ccc" stroke-width=".05" fill="#ccc"/><path d="M1204.86 480a14.76 14.76 0 0 1 14.76-14.75h40.76a14.76 14.76 0 0 1 14.76 14.75 14.76 14.76 0 0 1-14.76 14.75h-40.76a14.76 14.76 0 0 1-14.76-14.75z" stroke="#ccc" stroke-width="3" fill="none"/><use xlink:href="#b" transform="matrix(1,0,0,1,1216.8619791666667,469.2447916666667) translate(0 17.22222222222222)"/><path d="M1176.3 560l.1 1.48h-134.9v-2.96h134.9zm225.2 1.48h-97.9l.1-1.48-.1-1.48h97.9z" stroke="#ccc" stroke-width=".05" fill="#ccc"/><path d="M1041.54 561.48H1040v-2.96h1.54z" stroke="#ccc" stroke-width=".05" fill="#ccc"/><path d="M1413.16 550.5l2.75 1.43 2.17 2.16 1.42 2.74.5 3.16-.5 3.16-1.43 2.75-2.16 2.17-2.74 1.42-3.16.5-3.16-.5-2.75-1.43-2.17-2.16-1.42-2.74-.5-3.16.5-3.16 1.43-2.75 2.16-2.17 2.74-1.42 3.16-.5zm16.84-.5v20m-10-10h20" fill="#fff"/><path d="M1413.63 549.1l3.16 1.62 2.48 2.5 1.63 3.15.36 2.15h7.27V550h2.94v8.52h8.53v2.96h-8.53V570h-2.94v-8.52h-7.27l-.35 2.15-1.62 3.16-2.5 2.48-3.15 1.63-3.63.6-3.63-.6-3.16-1.62-2.48-2.5-1.63-3.15-.6-3.63.6-3.63 1.62-3.16 2.5-2.48 3.15-1.63 3.63-.6zm-6.32 2.83l-2.33 1.2-1.84 1.85-1.2 2.33-.44 2.7.43 2.7 1.2 2.32 1.84 1.85 2.34 1.2 2.7.44 2.7-.43 2.33-1.2 1.84-1.85 1.2-2.33.44-2.7-.43-2.7-1.2-2.32-1.84-1.85-2.34-1.2-2.7-.44z" stroke="#ccc" stroke-width=".05" fill="#ccc"/><path d="M1177.8 560a14.76 14.76 0 0 1 14.75-14.75h94.9A14.76 14.76 0 0 1 1302.2 560a14.76 14.76 0 0 1-14.75 14.75h-94.9A14.76 14.76 0 0 1 1177.8 560z" stroke="#ccc" stroke-width="3" fill="none"/><use xlink:href="#c" transform="matrix(1,0,0,1,1189.7916666666667,549.2447916666666) translate(0 17.22222222222222)"/><use xlink:href="#d" transform="matrix(1,0,0,1,1189.7916666666667,549.2447916666666) translate(43.60243055555556 17.22222222222222)"/><use xlink:href="#e" transform="matrix(1,0,0,1,1189.7916666666667,549.2447916666666) translate(65.95486111111111 17.22222222222222)"/><path d="M1178.36 640l.1 1.48H1041.5v-2.96h136.97zm241.64 1.48h-118.47l.1-1.48-.1-1.48H1420z" stroke="#ccc" stroke-width=".05" fill="#ccc"/><path d="M1041.54 641.48H1040v-2.96h1.54zM1421.47 638.52h7.06V630h2.94v8.52h8.53v2.96h-8.53V650h-2.94v-8.52h-7.06V650h-2.94v-20h2.94z" stroke="#ccc" stroke-width=".05" fill="#ccc"/><path d="M1179.86 640a14.76 14.76 0 0 1 14.76-14.75h90.76a14.76 14.76 0 0 1 14.76 14.75 14.76 14.76 0 0 1-14.76 14.75h-90.76a14.76 14.76 0 0 1-14.76-14.75z" stroke="#ccc" stroke-width="3" fill="none"/><use xlink:href="#f" transform="matrix(1,0,0,1,1191.8619791666667,629.2447916666666) translate(0 17.22222222222222)"/><use xlink:href="#d" transform="matrix(1,0,0,1,1191.8619791666667,629.2447916666666) translate(39.46180555555556 17.22222222222222)"/><use xlink:href="#e" transform="matrix(1,0,0,1,1191.8619791666667,629.2447916666666) translate(61.814236111111114 17.22222222222222)"/><path d="M1170.38 720l.12 1.48h-129v-2.96h129zm229.62 1.48h-90.5l.12-1.48-.12-1.48h90.5z" stroke="#ccc" stroke-width=".05" fill="#ccc"/><path d="M1041.54 721.48H1040v-2.96h1.54z" stroke="#ccc" stroke-width=".05" fill="#ccc"/><path d="M1412.5 710.5l2.73 1.43 2.17 2.16 1.42 2.74.5 3.16-.5 3.16-1.42 2.75-2.17 2.17-2.74 1.42-3.17.5-3.16-.5-2.75-1.43-2.16-2.16-1.42-2.74-.5-3.16.5-3.16 1.42-2.75 2.16-2.17 2.75-1.42 3.16-.5zm26.83 19.5l-20-10m20-10l-20 10m0 0h20" fill="#fff"/><path d="M1412.96 709.1l3.16 1.62 2.5 2.5 1.62 3.15.23 1.4 18.2-9.1 1.32 2.65-14.42 7.2h13.75v2.96h-13.75l14.4 7.2-1.3 2.64-18.2-9.1-.24 1.4-1.63 3.17-2.48 2.48-3.16 1.63-3.63.6-3.63-.6-3.16-1.62-2.5-2.5-1.62-3.15-.6-3.63.6-3.63 1.63-3.16 2.5-2.48 3.15-1.63 3.63-.6zm-6.32 2.83l-2.34 1.2-1.84 1.85-1.2 2.33-.44 2.7.44 2.7 1.2 2.32 1.84 1.85 2.34 1.2 2.7.44 2.68-.43 2.33-1.2 1.85-1.85 1.2-2.33.43-2.7-.43-2.7-1.2-2.32-1.85-1.85-2.33-1.2-2.7-.44z" stroke="#ccc" stroke-width=".05" fill="#ccc"/><path d="M1171.88 720a14.76 14.76 0 0 1 14.76-14.75h106.72a14.76 14.76 0 0 1 14.76 14.75 14.76 14.76 0 0 1-14.76 14.75h-106.72a14.76 14.76 0 0 1-14.76-14.75z" stroke="#ccc" stroke-width="3" fill="none"/><use xlink:href="#c" transform="matrix(1,0,0,1,1183.884548611111,709.2447916666666) translate(0 17.22222222222222)"/><use xlink:href="#d" transform="matrix(1,0,0,1,1183.884548611111,709.2447916666666) translate(43.60243055555556 17.22222222222222)"/><use xlink:href="#g" transform="matrix(1,0,0,1,1183.884548611111,709.2447916666666) translate(65.95486111111111 17.22222222222222)"/><path d="M1172.45 800l.12 1.48H1041.5v-2.96h131.07zm247.55 1.48h-112.57l.12-1.48-.12-1.48H1420z" stroke="#ccc" stroke-width=".05" fill="#ccc"/><path d="M1041.54 801.48H1040v-2.96h1.54zM1440 791.32l-14.42 7.2h13.75v2.96h-13.75l14.4 7.2-1.3 2.64-17.88-8.93v7.6h-2.95v-20h2.95v7.6l17.87-8.92z" stroke="#ccc" stroke-width=".05" fill="#ccc"/><path d="M1173.95 800a14.76 14.76 0 0 1 14.76-14.75h102.6a14.76 14.76 0 0 1 14.75 14.75 14.76 14.76 0 0 1-14.76 14.75h-102.6a14.76 14.76 0 0 1-14.75-14.75z" stroke="#ccc" stroke-width="3" fill="none"/><use xlink:href="#f" transform="matrix(1,0,0,1,1185.954861111111,789.2447916666666) translate(0 17.22222222222222)"/><use xlink:href="#d" transform="matrix(1,0,0,1,1185.954861111111,789.2447916666666) translate(39.46180555555556 17.22222222222222)"/><use xlink:href="#g" transform="matrix(1,0,0,1,1185.954861111111,789.2447916666666) translate(61.814236111111114 17.22222222222222)"/><path d="M1816.3 440l.1 1.48h-134.9v-2.96h134.9zm225.2 1.48h-97.9l.1-1.48-.1-1.48h97.9z" stroke="#ccc" stroke-width=".05" fill="#ccc"/><path d="M1681.54 441.48H1680v-2.96h1.54z" stroke="#ccc" stroke-width=".05" fill="#ccc"/><path d="M2053.16 430.5l2.75 1.43 2.17 2.16 1.42 2.74.5 3.16-.5 3.16-1.43 2.75-2.16 2.17-2.74 1.42-3.16.5-3.16-.5-2.75-1.43-2.17-2.16-1.42-2.74-.5-3.16.5-3.16 1.43-2.75 2.16-2.17 2.74-1.42 3.16-.5zm16.84-.5v20m-10-10h20" fill="#fff"/><path d="M2053.63 429.1l3.16 1.62 2.48 2.5 1.63 3.15.36 2.15h7.26V430h2.95v8.52h8.53v2.96h-8.53V450h-2.94v-8.52h-7.27l-.35 2.15-1.62 3.16-2.5 2.48-3.15 1.63-3.63.6-3.63-.6-3.16-1.62-2.48-2.5-1.63-3.15-.6-3.63.6-3.63 1.62-3.16 2.5-2.48 3.15-1.63 3.63-.6zm-6.32 2.83l-2.33 1.2-1.84 1.85-1.2 2.33-.44 2.7.43 2.7 1.2 2.32 1.84 1.85 2.34 1.2 2.7.44 2.7-.43 2.33-1.2 1.84-1.85 1.2-2.33.44-2.7-.43-2.7-1.2-2.32-1.84-1.85-2.34-1.2-2.7-.44z" stroke="#ccc" stroke-width=".05" fill="#ccc"/><path d="M1817.8 440a14.76 14.76 0 0 1 14.75-14.75h94.9A14.76 14.76 0 0 1 1942.2 440a14.76 14.76 0 0 1-14.75 14.75h-94.9A14.76 14.76 0 0 1 1817.8 440z" stroke="#ccc" stroke-width="3" fill="none"/><use xlink:href="#c" transform="matrix(1,0,0,1,1829.7916666666667,429.2447916666667) translate(0 17.22222222222222)"/><use xlink:href="#d" transform="matrix(1,0,0,1,1829.7916666666667,429.2447916666667) translate(43.60243055555556 17.22222222222222)"/><use xlink:href="#e" transform="matrix(1,0,0,1,1829.7916666666667,429.2447916666667) translate(65.95486111111111 17.22222222222222)"/><path d="M1812.45 760l.12 1.48H1681.5v-2.96h131.07zm247.55 1.48h-112.57l.12-1.48-.12-1.48H2060z" stroke="#ccc" stroke-width=".05" fill="#ccc"/><path d="M1681.54 761.48H1680v-2.96h1.54zM2080 751.32l-14.42 7.2h13.75v2.96h-13.75l14.4 7.2-1.3 2.64-17.88-8.93v7.6h-2.95v-20h2.95v7.6l17.87-8.92z" stroke="#ccc" stroke-width=".05" fill="#ccc"/><path d="M1813.95 760a14.76 14.76 0 0 1 14.76-14.75h102.6a14.76 14.76 0 0 1 14.75 14.75 14.76 14.76 0 0 1-14.76 14.75h-102.6a14.76 14.76 0 0 1-14.75-14.75z" stroke="#ccc" stroke-width="3" fill="none"/><use xlink:href="#f" transform="matrix(1,0,0,1,1825.954861111111,749.2447916666666) translate(0 17.22222222222222)"/><use xlink:href="#d" transform="matrix(1,0,0,1,1825.954861111111,749.2447916666666) translate(39.46180555555556 17.22222222222222)"/><use xlink:href="#g" transform="matrix(1,0,0,1,1825.954861111111,749.2447916666666) translate(61.814236111111114 17.22222222222222)"/><path d="M1780 546a6 6 0 0 1 6-6h188a6 6 0 0 1 6 6v28a6 6 0 0 1-6 6h-188a6 6 0 0 1-6-6z" stroke="#499650" stroke-width="2" fill-opacity="0"/><use xlink:href="#h" transform="matrix(1,0,0,1,1785,545) translate(21.41927083333333 20.97222222222222)"/><use xlink:href="#i" transform="matrix(1,0,0,1,1785,545) translate(103.25086805555556 20.97222222222222)"/><path d="M1780 626a6 6 0 0 1 6-6h188a6 6 0 0 1 6 6v28a6 6 0 0 1-6 6h-188a6 6 0 0 1-6-6z" stroke="#b44444" stroke-width="2" fill-opacity="0"/><use xlink:href="#j" transform="matrix(1,0,0,1,1785,625) translate(18.98003472222223 20.97222222222222)"/><use xlink:href="#i" transform="matrix(1,0,0,1,1785,625) translate(105.69010416666667 20.97222222222222)"/><path d="M1982.5 560h61.5a6 6 0 0 0 6-6v-73.07" stroke="#499650" stroke-width="3" fill="none"/><path d="M1982.54 561.48H1981v-2.96h1.54z" stroke="#499650" stroke-width=".05" fill="#499650"/><path d="M2049.9 465.27l4.73 14.24-9.27.06z" stroke="#499650" stroke-width="3" fill="#499650"/><path d="M1982.5 560h70.5a6 6 0 0 1 6 6v152.87" stroke="#499650" stroke-width="3" fill="none"/><path d="M1982.54 561.48H1981v-2.96h1.54z" stroke="#499650" stroke-width=".05" fill="#499650"/><path d="M2059 734.63l-4.64-14.26h9.27z" stroke="#499650" stroke-width="3" fill="#499650"/><path d="M1982.5 640h81.2a6 6 0 0 0 6-6V481.03" stroke="#b44444" stroke-width="3" fill="none"/><path d="M1982.54 641.48H1981v-2.96h1.54z" stroke="#b44444" stroke-width=".05" fill="#b44444"/><path d="M2069.7 465.26l4.64 14.27h-9.27z" stroke="#b44444" stroke-width="3" fill="#b44444"/><path d="M1982.5 640h85.13a6 6 0 0 1 6 6v72.87" stroke="#b44444" stroke-width="3" fill="none"/><path d="M1982.54 641.48H1981v-2.96h1.54z" stroke="#b44444" stroke-width=".05" fill="#b44444"/><path d="M2073.63 734.63l-4.63-14.26h9.27z" stroke="#b44444" stroke-width="3" fill="#b44444"/><defs><path fill="#ccc" d="M784 20c-382 0-662-292-662-764 0-473 280-766 662-766s660 293 660 766c0 472-278 764-660 764zm0-176c266 0 475-207 475-588 0-383-209-590-475-590-268 0-477 208-477 590 0 380 209 588 477 588" id="k"/><path fill="#ccc" d="M338-670V0H158v-1118h173l1 207c72-158 192-221 342-221 226 0 378 139 378 422V0H872v-695c0-172-96-275-252-275-161 0-282 109-282 300" id="l"/><path fill="#ccc" d="M628 24c-324 0-524-230-524-574 0-343 198-582 503-582 237 0 487 146 487 559v75H286c9 234 145 362 343 362 132 0 231-58 273-172l174 48C1024-91 857 24 628 24zM287-650h624c-17-190-120-322-304-322-192 0-309 151-320 322" id="m"/><g id="a"><use transform="matrix(0.008680555555555556,0,0,0.008680555555555556,0,0)" xlink:href="#k"/><use transform="matrix(0.008680555555555556,0,0,0.008680555555555556,13.59375,0)" xlink:href="#l"/><use transform="matrix(0.008680555555555556,0,0,0.008680555555555556,24.097222222222225,0)" xlink:href="#m"/></g><path fill="#ccc" d="M180 0v-1490h270l367 940c28 72 75 218 110 339 35-117 81-264 110-339l362-940h271V0h-187c2-448-5-837 7-1287-157 497-311 829-483 1287H842C666-458 514-784 354-1284c12 438 5 843 7 1284H180" id="n"/><path fill="#ccc" d="M471 26C259 26 90-98 90-318c0-256 228-303 435-329 202-27 287-16 287-108 0-139-79-219-234-219-161 0-248 86-283 164l-173-57c86-203 278-265 451-265 150 0 419 46 419 395V0H815v-152h-12C765-73 660 26 471 26zm31-159c199 0 310-134 310-271v-155c-30 35-226 55-295 64-131 17-246 59-246 186 0 116 97 176 231 176" id="o"/><path fill="#ccc" d="M140 405l46-156c120 36 205 19 263-150l32-93L54-1118h197c107 313 237 620 324 950 87-331 219-637 326-950h196L606 167c-68 178-176 259-334 259-64 0-113-12-132-21" id="p"/><g id="b"><use transform="matrix(0.008680555555555556,0,0,0.008680555555555556,0,0)" xlink:href="#n"/><use transform="matrix(0.008680555555555556,0,0,0.008680555555555556,16.05902777777778,0)" xlink:href="#o"/><use transform="matrix(0.008680555555555556,0,0,0.008680555555555556,26.041666666666668,0)" xlink:href="#l"/><use transform="matrix(0.008680555555555556,0,0,0.008680555555555556,36.28472222222222,0)" xlink:href="#p"/></g><path fill="#ccc" d="M130 0v-134l666-991c45-67 96-135 147-202-269 9-546 3-821 5v-168h1036v136L502-379c-49 72-103 145-157 216 268-9 546-3 821-5V0H130" id="q"/><path fill="#ccc" d="M158 0v-1118h174v172h12c41-113 157-188 290-188 26 0 70 2 91 3v181c-11-2-60-10-108-10-161 0-279 109-279 260V0H158" id="r"/><path fill="#ccc" d="M613 24c-304 0-509-231-509-576 0-350 205-580 509-580 305 0 511 230 511 580 0 345-206 576-511 576zm0-161c226 0 329-195 329-415 0-222-103-419-329-419-223 0-326 196-326 419 0 220 103 415 326 415" id="s"/><g id="c"><use transform="matrix(0.008680555555555556,0,0,0.008680555555555556,0,0)" xlink:href="#q"/><use transform="matrix(0.008680555555555556,0,0,0.008680555555555556,11.180555555555555,0)" xlink:href="#m"/><use transform="matrix(0.008680555555555556,0,0,0.008680555555555556,21.54513888888889,0)" xlink:href="#r"/><use transform="matrix(0.008680555555555556,0,0,0.008680555555555556,27.942708333333336,0)" xlink:href="#s"/></g><g id="d"><use transform="matrix(0.008680555555555556,0,0,0.008680555555555556,0,0)" xlink:href="#s"/><use transform="matrix(0.008680555555555556,0,0,0.008680555555555556,10.659722222222223,0)" xlink:href="#r"/></g><g id="e"><use transform="matrix(0.008680555555555556,0,0,0.008680555555555556,0,0)" xlink:href="#k"/><use transform="matrix(0.008680555555555556,0,0,0.008680555555555556,13.59375,0)" xlink:href="#l"/><use transform="matrix(0.008680555555555556,0,0,0.008680555555555556,24.097222222222225,0)" xlink:href="#m"/></g><g id="f"><use transform="matrix(0.008680555555555556,0,0,0.008680555555555556,0,0)" xlink:href="#k"/><use transform="matrix(0.008680555555555556,0,0,0.008680555555555556,13.59375,0)" xlink:href="#l"/><use transform="matrix(0.008680555555555556,0,0,0.008680555555555556,24.097222222222225,0)" xlink:href="#m"/></g><g id="g"><use transform="matrix(0.008680555555555556,0,0,0.008680555555555556,0,0)" xlink:href="#n"/><use transform="matrix(0.008680555555555556,0,0,0.008680555555555556,16.05902777777778,0)" xlink:href="#o"/><use transform="matrix(0.008680555555555556,0,0,0.008680555555555556,26.041666666666668,0)" xlink:href="#l"/><use transform="matrix(0.008680555555555556,0,0,0.008680555555555556,36.28472222222222,0)" xlink:href="#p"/></g><path fill="#ccc" d="M158 0v-1118h180V0H158zm91-1301c-68 0-125-53-125-119s57-119 125-119c69 0 126 53 126 119s-57 119-126 119" id="t"/><path fill="#ccc" d="M158 0v-1118h175l1 205c55-151 181-225 313-225 147 0 245 90 285 228 53-141 190-228 352-228 194 0 352 125 352 384V0h-181v-749c0-161-105-225-225-225-151 0-243 103-243 244V0H807v-767c0-124-93-207-219-207-131 0-250 92-250 270V0H158" id="u"/><path fill="#ccc" d="M537 14c-226 0-379-139-379-422v-710h180v695c0 172 97 275 253 275 160 0 281-109 281-300v-670h181V0H879v-209C806-46 684 14 537 14" id="v"/><g id="h"><use transform="matrix(0.008680555555555556,0,0,0.008680555555555556,0,0)" xlink:href="#n"/><use transform="matrix(0.008680555555555556,0,0,0.008680555555555556,16.05902777777778,0)" xlink:href="#t"/><use transform="matrix(0.008680555555555556,0,0,0.008680555555555556,20.364583333333336,0)" xlink:href="#l"/><use transform="matrix(0.008680555555555556,0,0,0.008680555555555556,30.868055555555557,0)" xlink:href="#t"/><use transform="matrix(0.008680555555555556,0,0,0.008680555555555556,35.173611111111114,0)" xlink:href="#u"/><use transform="matrix(0.008680555555555556,0,0,0.008680555555555556,50.746527777777786,0)" xlink:href="#v"/><use transform="matrix(0.008680555555555556,0,0,0.008680555555555556,61.258680555555564,0)" xlink:href="#u"/></g><path fill="#ccc" d="M52 0l541-1490h220L1361 0h-200l-149-416H398L254 0H52zm404-582h497c-103-290-145-390-251-756-108 377-145 460-246 756" id="w"/><path fill="#ccc" d="M598-1118v154H368v674c0 100 37 144 132 144 23 0 62-6 92-12L629-6c-37 13-88 20-134 20-193 0-307-107-307-290v-688H20v-154h168v-266h180v266h230" id="x"/><g id="i"><use transform="matrix(0.008680555555555556,0,0,0.008680555555555556,0,0)" xlink:href="#w"/><use transform="matrix(0.008680555555555556,0,0,0.008680555555555556,12.265625,0)" xlink:href="#u"/><use transform="matrix(0.008680555555555556,0,0,0.008680555555555556,27.838541666666668,0)" xlink:href="#s"/><use transform="matrix(0.008680555555555556,0,0,0.008680555555555556,38.49826388888889,0)" xlink:href="#v"/><use transform="matrix(0.008680555555555556,0,0,0.008680555555555556,49.01041666666667,0)" xlink:href="#l"/><use transform="matrix(0.008680555555555556,0,0,0.008680555555555556,59.51388888888889,0)" xlink:href="#x"/></g><path fill="#ccc" d="M65 0l393-574-370-544h210c88 136 192 297 267 435 67-142 176-302 264-435h206L661-564 1053 0H844c-94-144-206-310-287-458C484-308 366-142 273 0H65" id="y"/><g id="j"><use transform="matrix(0.008680555555555556,0,0,0.008680555555555556,0,0)" xlink:href="#n"/><use transform="matrix(0.008680555555555556,0,0,0.008680555555555556,16.05902777777778,0)" xlink:href="#o"/><use transform="matrix(0.008680555555555556,0,0,0.008680555555555556,26.041666666666668,0)" xlink:href="#y"/><use transform="matrix(0.008680555555555556,0,0,0.008680555555555556,35.74652777777778,0)" xlink:href="#t"/><use transform="matrix(0.008680555555555556,0,0,0.008680555555555556,40.052083333333336,0)" xlink:href="#u"/><use transform="matrix(0.008680555555555556,0,0,0.008680555555555556,55.625,0)" xlink:href="#v"/><use transform="matrix(0.008680555555555556,0,0,0.008680555555555556,66.13715277777777,0)" xlink:href="#u"/></g></defs></g></svg>