<svg xmlns="http://www.w3.org/2000/svg" xmlns:xlink="http://www.w3.org/1999/xlink" xmlns:lucid="lucid" width="1659.91" height="1062"><g transform="translate(341.5 3041)" lucid:page-tab-id="0_0"><path d="M320-3028a12 12 0 0 1 12-12h356a12 12 0 0 1 12 12v268a12 12 0 0 1-12 12H332a12 12 0 0 1-12-12z" fill-opacity="0"/><path d="M320-3028a12 12 0 0 1 12-12h356a12 12 0 0 1 12 12v28H320z" fill="#383838"/><path d="M320-3000h380v37H320z" fill-opacity="0"/><path d="M320-2964h380v37H320z" fill="#fff" fill-opacity=".06"/><path d="M320-2928h380v37H320z" fill-opacity="0"/><path d="M320-2892h380v37H320z" fill="#fff" fill-opacity=".06"/><path d="M320-2856h380v37H320z" fill-opacity="0"/><path d="M320-2820h380v37H320z" fill="#fff" fill-opacity=".06"/><path d="M320-2784h380v24a12 12 0 0 1-12 12H332a12 12 0 0 1-12-12z" fill-opacity="0"/><path d="M321-3000h378-378zM320-3028a12 12 0 0 1 12-12h356a12 12 0 0 1 12 12v268a12 12 0 0 1-12 12H332a12 12 0 0 1-12-12zM388-2999v250zM560-2999v250z" stroke="#383838" stroke-width="2" fill="none"/><use xlink:href="#a" transform="matrix(1,0,0,1,330,-3040) translate(149.95529513888889 23.49392361111111)"/><use xlink:href="#b" transform="matrix(1,0,0,1,325,-2997.5) translate(0 21.48394097222222)"/><use xlink:href="#c" transform="matrix(1,0,0,1,325,-2997.5) translate(12.217881944444445 21.48394097222222)"/><use xlink:href="#b" transform="matrix(1,0,0,1,393,-2997.5) translate(0 21.48394097222222)"/><use xlink:href="#d" transform="matrix(1,0,0,1,393,-2997.5) translate(12.217881944444445 21.48394097222222)"/><use xlink:href="#b" transform="matrix(1,0,0,1,565,-2997.5) translate(0 21.48394097222222)"/><use xlink:href="#e" transform="matrix(1,0,0,1,565,-2997.5) translate(12.217881944444445 21.48394097222222)"/><use xlink:href="#b" transform="matrix(1,0,0,1,325,-2961.5) translate(0 21.48394097222222)"/><use xlink:href="#f" transform="matrix(1,0,0,1,325,-2961.5) translate(12.217881944444445 21.48394097222222)"/><use xlink:href="#b" transform="matrix(1,0,0,1,393,-2961.5) translate(0 21.48394097222222)"/><use xlink:href="#g" transform="matrix(1,0,0,1,393,-2961.5) translate(12.217881944444445 21.48394097222222)"/><use xlink:href="#b" transform="matrix(1,0,0,1,565,-2961.5) translate(0 21.48394097222222)"/><use xlink:href="#e" transform="matrix(1,0,0,1,565,-2961.5) translate(12.217881944444445 21.48394097222222)"/><use xlink:href="#b" transform="matrix(1,0,0,1,393,-2925.5) translate(0 21.48394097222222)"/><use xlink:href="#h" transform="matrix(1,0,0,1,393,-2925.5) translate(12.217881944444445 21.48394097222222)"/><use xlink:href="#b" transform="matrix(1,0,0,1,565,-2925.5) translate(0 21.48394097222222)"/><use xlink:href="#i" transform="matrix(1,0,0,1,565,-2925.5) translate(12.217881944444445 21.48394097222222)"/><use xlink:href="#b" transform="matrix(1,0,0,1,393,-2889.5) translate(0 21.48394097222222)"/><use xlink:href="#j" transform="matrix(1,0,0,1,393,-2889.5) translate(12.217881944444445 21.48394097222222)"/><use xlink:href="#b" transform="matrix(1,0,0,1,565,-2889.5) translate(0 21.48394097222222)"/><use xlink:href="#i" transform="matrix(1,0,0,1,565,-2889.5) translate(12.217881944444445 21.48394097222222)"/><use xlink:href="#b" transform="matrix(1,0,0,1,393,-2853.5) translate(0 21.48394097222222)"/><use xlink:href="#k" transform="matrix(1,0,0,1,393,-2853.5) translate(12.217881944444445 21.48394097222222)"/><use xlink:href="#b" transform="matrix(1,0,0,1,565,-2853.5) translate(0 21.48394097222222)"/><use xlink:href="#i" transform="matrix(1,0,0,1,565,-2853.5) translate(12.217881944444445 21.48394097222222)"/><use xlink:href="#b" transform="matrix(1,0,0,1,393,-2817.5) translate(0 21.48394097222222)"/><use xlink:href="#l" transform="matrix(1,0,0,1,393,-2817.5) translate(12.217881944444445 21.48394097222222)"/><use xlink:href="#b" transform="matrix(1,0,0,1,565,-2817.5) translate(0 21.48394097222222)"/><use xlink:href="#m" transform="matrix(1,0,0,1,565,-2817.5) translate(12.217881944444445 21.48394097222222)"/><use xlink:href="#b" transform="matrix(1,0,0,1,393,-2781.5) translate(0 18.99392361111111)"/><use xlink:href="#n" transform="matrix(1,0,0,1,393,-2781.5) translate(12.217881944444445 18.99392361111111)"/><use xlink:href="#b" transform="matrix(1,0,0,1,565,-2781.5) translate(0 18.99392361111111)"/><use xlink:href="#m" transform="matrix(1,0,0,1,565,-2781.5) translate(12.217881944444445 18.99392361111111)"/><path d="M900-2784a12 12 0 0 1 12-12h368.8a12 12 0 0 1 12 12v232a12 12 0 0 1-12 12H912a12 12 0 0 1-12-12z" fill-opacity="0"/><path d="M900-2784a12 12 0 0 1 12-12h368.8a12 12 0 0 1 12 12v28H900z" fill="#383838"/><path d="M900-2756h392.8v37H900z" fill-opacity="0"/><path d="M900-2720h392.8v37H900z" fill="#fff" fill-opacity=".06"/><path d="M900-2684h392.8v37H900z" fill-opacity="0"/><path d="M900-2648h392.8v37H900z" fill="#fff" fill-opacity=".06"/><path d="M900-2612h392.8v37H900z" fill-opacity="0"/><path d="M900-2576h392.8v24a12 12 0 0 1-12 12H912a12 12 0 0 1-12-12z" fill="#fff" fill-opacity=".06"/><path d="M901-2756h390.8H901zM900-2784a12 12 0 0 1 12-12h368.8a12 12 0 0 1 12 12v232a12 12 0 0 1-12 12H912a12 12 0 0 1-12-12zM966.8-2755v214zM1153.14-2755v214z" stroke="#383838" stroke-width="2" fill="none"/><use xlink:href="#o" transform="matrix(1,0,0,1,910.0000000000002,-2796) translate(137.62847222222223 23.49392361111111)"/><use xlink:href="#b" transform="matrix(1,0,0,1,905.0000000000002,-2753.5) translate(0 21.48394097222222)"/><use xlink:href="#c" transform="matrix(1,0,0,1,905.0000000000002,-2753.5) translate(12.217881944444445 21.48394097222222)"/><use xlink:href="#b" transform="matrix(1,0,0,1,971.8093728062922,-2753.5) translate(0 21.48394097222222)"/><use xlink:href="#d" transform="matrix(1,0,0,1,971.8093728062922,-2753.5) translate(12.217881944444445 21.48394097222222)"/><use xlink:href="#b" transform="matrix(1,0,0,1,1158.1427061396257,-2753.5) translate(0 21.48394097222222)"/><use xlink:href="#e" transform="matrix(1,0,0,1,1158.1427061396257,-2753.5) translate(12.217881944444445 21.48394097222222)"/><use xlink:href="#b" transform="matrix(1,0,0,1,905.0000000000002,-2717.5) translate(0 21.48394097222222)"/><use xlink:href="#f" transform="matrix(1,0,0,1,905.0000000000002,-2717.5) translate(12.217881944444445 21.48394097222222)"/><use xlink:href="#b" transform="matrix(1,0,0,1,971.8093728062922,-2717.5) translate(0 21.48394097222222)"/><use xlink:href="#p" transform="matrix(1,0,0,1,971.8093728062922,-2717.5) translate(12.217881944444445 21.48394097222222)"/><use xlink:href="#b" transform="matrix(1,0,0,1,1158.1427061396257,-2717.5) translate(0 21.48394097222222)"/><use xlink:href="#e" transform="matrix(1,0,0,1,1158.1427061396257,-2717.5) translate(12.217881944444445 21.48394097222222)"/><use xlink:href="#b" transform="matrix(1,0,0,1,971.8093728062922,-2681.5) translate(0 21.48394097222222)"/><use xlink:href="#q" transform="matrix(1,0,0,1,971.8093728062922,-2681.5) translate(12.217881944444445 21.48394097222222)"/><use xlink:href="#b" transform="matrix(1,0,0,1,1158.1427061396257,-2681.5) translate(0 21.48394097222222)"/><use xlink:href="#i" transform="matrix(1,0,0,1,1158.1427061396257,-2681.5) translate(12.217881944444445 21.48394097222222)"/><use xlink:href="#b" transform="matrix(1,0,0,1,971.8093728062922,-2645.5) translate(0 21.48394097222222)"/><use xlink:href="#r" transform="matrix(1,0,0,1,971.8093728062922,-2645.5) translate(12.217881944444445 21.48394097222222)"/><use xlink:href="#b" transform="matrix(1,0,0,1,1158.1427061396257,-2645.5) translate(0 21.48394097222222)"/><use xlink:href="#i" transform="matrix(1,0,0,1,1158.1427061396257,-2645.5) translate(12.217881944444445 21.48394097222222)"/><use xlink:href="#b" transform="matrix(1,0,0,1,971.8093728062922,-2609.5) translate(0 21.48394097222222)"/><use xlink:href="#l" transform="matrix(1,0,0,1,971.8093728062922,-2609.5) translate(12.217881944444445 21.48394097222222)"/><use xlink:href="#b" transform="matrix(1,0,0,1,1158.1427061396257,-2609.5) translate(0 21.48394097222222)"/><use xlink:href="#m" transform="matrix(1,0,0,1,1158.1427061396257,-2609.5) translate(12.217881944444445 21.48394097222222)"/><use xlink:href="#b" transform="matrix(1,0,0,1,971.8093728062922,-2573.5) translate(0 21.48394097222222)"/><use xlink:href="#n" transform="matrix(1,0,0,1,971.8093728062922,-2573.5) translate(12.217881944444445 21.48394097222222)"/><use xlink:href="#b" transform="matrix(1,0,0,1,1158.1427061396257,-2573.5) translate(0 21.48394097222222)"/><use xlink:href="#m" transform="matrix(1,0,0,1,1158.1427061396257,-2573.5) translate(12.217881944444445 21.48394097222222)"/><path d="M900-2468a12 12 0 0 1 12-12h356a12 12 0 0 1 12 12v232a12 12 0 0 1-12 12H912a12 12 0 0 1-12-12z" fill-opacity="0"/><path d="M900-2468a12 12 0 0 1 12-12h356a12 12 0 0 1 12 12v28H900z" fill="#383838"/><path d="M900-2440h380v37H900z" fill-opacity="0"/><path d="M900-2404h380v37H900z" fill="#fff" fill-opacity=".06"/><path d="M900-2368h380v37H900z" fill-opacity="0"/><path d="M900-2332h380v37H900z" fill="#fff" fill-opacity=".06"/><path d="M900-2296h380v37H900z" fill-opacity="0"/><path d="M900-2260h380v24a12 12 0 0 1-12 12H912a12 12 0 0 1-12-12z" fill="#fff" fill-opacity=".06"/><path d="M901-2440h378-378zM900-2468a12 12 0 0 1 12-12h356a12 12 0 0 1 12 12v232a12 12 0 0 1-12 12H912a12 12 0 0 1-12-12zM969-2439v214zM1140.67-2439v214z" stroke="#383838" stroke-width="2" fill="none"/><use xlink:href="#s" transform="matrix(1,0,0,1,910,-2480) translate(149.45529513888889 23.49392361111111)"/><use xlink:href="#b" transform="matrix(1,0,0,1,905,-2437.5) translate(0 21.48394097222222)"/><use xlink:href="#c" transform="matrix(1,0,0,1,905,-2437.5) translate(12.217881944444445 21.48394097222222)"/><use xlink:href="#b" transform="matrix(1,0,0,1,974,-2437.5) translate(0 21.48394097222222)"/><use xlink:href="#d" transform="matrix(1,0,0,1,974,-2437.5) translate(12.217881944444445 21.48394097222222)"/><use xlink:href="#b" transform="matrix(1,0,0,1,1145.6666666666667,-2437.5) translate(0 21.48394097222222)"/><use xlink:href="#e" transform="matrix(1,0,0,1,1145.6666666666667,-2437.5) translate(12.217881944444445 21.48394097222222)"/><use xlink:href="#b" transform="matrix(1,0,0,1,905,-2401.5) translate(0 21.48394097222222)"/><use xlink:href="#f" transform="matrix(1,0,0,1,905,-2401.5) translate(12.217881944444445 21.48394097222222)"/><use xlink:href="#b" transform="matrix(1,0,0,1,974,-2401.5) translate(0 21.48394097222222)"/><use xlink:href="#p" transform="matrix(1,0,0,1,974,-2401.5) translate(12.217881944444445 21.48394097222222)"/><use xlink:href="#b" transform="matrix(1,0,0,1,1145.6666666666667,-2401.5) translate(0 21.48394097222222)"/><use xlink:href="#e" transform="matrix(1,0,0,1,1145.6666666666667,-2401.5) translate(12.217881944444445 21.48394097222222)"/><use xlink:href="#b" transform="matrix(1,0,0,1,974,-2365.5) translate(0 21.48394097222222)"/><use xlink:href="#t" transform="matrix(1,0,0,1,974,-2365.5) translate(12.217881944444445 21.48394097222222)"/><use xlink:href="#b" transform="matrix(1,0,0,1,1145.6666666666667,-2365.5) translate(0 21.48394097222222)"/><use xlink:href="#i" transform="matrix(1,0,0,1,1145.6666666666667,-2365.5) translate(12.217881944444445 21.48394097222222)"/><use xlink:href="#b" transform="matrix(1,0,0,1,974,-2329.5) translate(0 21.48394097222222)"/><use xlink:href="#u" transform="matrix(1,0,0,1,974,-2329.5) translate(12.217881944444445 21.48394097222222)"/><use xlink:href="#b" transform="matrix(1,0,0,1,1145.6666666666667,-2329.5) translate(0 21.48394097222222)"/><use xlink:href="#i" transform="matrix(1,0,0,1,1145.6666666666667,-2329.5) translate(12.217881944444445 21.48394097222222)"/><use xlink:href="#b" transform="matrix(1,0,0,1,974,-2293.5) translate(0 21.48394097222222)"/><use xlink:href="#l" transform="matrix(1,0,0,1,974,-2293.5) translate(12.217881944444445 21.48394097222222)"/><use xlink:href="#b" transform="matrix(1,0,0,1,1145.6666666666667,-2293.5) translate(0 21.48394097222222)"/><use xlink:href="#m" transform="matrix(1,0,0,1,1145.6666666666667,-2293.5) translate(12.217881944444445 21.48394097222222)"/><use xlink:href="#b" transform="matrix(1,0,0,1,974,-2257.5) translate(0 21.48394097222222)"/><use xlink:href="#n" transform="matrix(1,0,0,1,974,-2257.5) translate(12.217881944444445 21.48394097222222)"/><use xlink:href="#b" transform="matrix(1,0,0,1,1145.6666666666667,-2257.5) translate(0 21.48394097222222)"/><use xlink:href="#m" transform="matrix(1,0,0,1,1145.6666666666667,-2257.5) translate(12.217881944444445 21.48394097222222)"/><path d="M295-2676a12 12 0 0 1 12-12h406a12 12 0 0 1 12 12v232a12 12 0 0 1-12 12H307a12 12 0 0 1-12-12z" fill-opacity="0"/><path d="M295-2676a12 12 0 0 1 12-12h406a12 12 0 0 1 12 12v28H295z" fill="#383838"/><path d="M295-2648h430v37H295z" fill-opacity="0"/><path d="M295-2612h430v37H295z" fill="#fff" fill-opacity=".06"/><path d="M295-2576h430v37H295z" fill-opacity="0"/><path d="M295-2540h430v37H295z" fill="#fff" fill-opacity=".06"/><path d="M295-2504h430v37H295z" fill-opacity="0"/><path d="M295-2468h430v24a12 12 0 0 1-12 12H307a12 12 0 0 1-12-12z" fill="#fff" fill-opacity=".06"/><path d="M296-2648h428-428zM295-2676a12 12 0 0 1 12-12h406a12 12 0 0 1 12 12v232a12 12 0 0 1-12 12H307a12 12 0 0 1-12-12zM367.4-2647v214zM593.93-2647v214z" stroke="#383838" stroke-width="2" fill="none"/><use xlink:href="#v" transform="matrix(1,0,0,1,305.00000000000006,-2688) translate(156.12847222222223 23.49392361111111)"/><use xlink:href="#b" transform="matrix(1,0,0,1,300.00000000000006,-2645.5) translate(0 21.48394097222222)"/><use xlink:href="#c" transform="matrix(1,0,0,1,300.00000000000006,-2645.5) translate(12.217881944444445 21.48394097222222)"/><use xlink:href="#b" transform="matrix(1,0,0,1,372.40000000000003,-2645.5) translate(0 21.48394097222222)"/><use xlink:href="#d" transform="matrix(1,0,0,1,372.40000000000003,-2645.5) translate(12.217881944444445 21.48394097222222)"/><use xlink:href="#b" transform="matrix(1,0,0,1,598.9333333333334,-2645.5) translate(0 21.48394097222222)"/><use xlink:href="#e" transform="matrix(1,0,0,1,598.9333333333334,-2645.5) translate(12.217881944444445 21.48394097222222)"/><use xlink:href="#b" transform="matrix(1,0,0,1,300.00000000000006,-2609.5) translate(0 21.48394097222222)"/><use xlink:href="#f" transform="matrix(1,0,0,1,300.00000000000006,-2609.5) translate(12.217881944444445 21.48394097222222)"/><use xlink:href="#b" transform="matrix(1,0,0,1,372.40000000000003,-2609.5) translate(0 21.48394097222222)"/><use xlink:href="#w" transform="matrix(1,0,0,1,372.40000000000003,-2609.5) translate(12.217881944444445 21.48394097222222)"/><use xlink:href="#b" transform="matrix(1,0,0,1,598.9333333333334,-2609.5) translate(0 21.48394097222222)"/><use xlink:href="#e" transform="matrix(1,0,0,1,598.9333333333334,-2609.5) translate(12.217881944444445 21.48394097222222)"/><use xlink:href="#b" transform="matrix(1,0,0,1,372.40000000000003,-2573.5) translate(0 21.48394097222222)"/><use xlink:href="#x" transform="matrix(1,0,0,1,372.40000000000003,-2573.5) translate(12.217881944444445 21.48394097222222)"/><use xlink:href="#b" transform="matrix(1,0,0,1,598.9333333333334,-2573.5) translate(0 21.48394097222222)"/><use xlink:href="#i" transform="matrix(1,0,0,1,598.9333333333334,-2573.5) translate(12.217881944444445 21.48394097222222)"/><use xlink:href="#b" transform="matrix(1,0,0,1,372.40000000000003,-2537.5) translate(0 21.48394097222222)"/><use xlink:href="#y" transform="matrix(1,0,0,1,372.40000000000003,-2537.5) translate(12.217881944444445 21.48394097222222)"/><use xlink:href="#b" transform="matrix(1,0,0,1,598.9333333333334,-2537.5) translate(0 21.48394097222222)"/><use xlink:href="#i" transform="matrix(1,0,0,1,598.9333333333334,-2537.5) translate(12.217881944444445 21.48394097222222)"/><use xlink:href="#b" transform="matrix(1,0,0,1,372.40000000000003,-2501.5) translate(0 21.48394097222222)"/><use xlink:href="#l" transform="matrix(1,0,0,1,372.40000000000003,-2501.5) translate(12.217881944444445 21.48394097222222)"/><use xlink:href="#b" transform="matrix(1,0,0,1,598.9333333333334,-2501.5) translate(0 21.48394097222222)"/><use xlink:href="#m" transform="matrix(1,0,0,1,598.9333333333334,-2501.5) translate(12.217881944444445 21.48394097222222)"/><use xlink:href="#b" transform="matrix(1,0,0,1,372.40000000000003,-2465.5) translate(0 18.99392361111111)"/><use xlink:href="#n" transform="matrix(1,0,0,1,372.40000000000003,-2465.5) translate(12.217881944444445 18.99392361111111)"/><use xlink:href="#b" transform="matrix(1,0,0,1,598.9333333333334,-2465.5) translate(0 18.99392361111111)"/><use xlink:href="#m" transform="matrix(1,0,0,1,598.9333333333334,-2465.5) translate(12.217881944444445 18.99392361111111)"/><path d="M862.6-2152a12 12 0 0 1 12-12h430.8a12 12 0 0 1 12 12v160a12 12 0 0 1-12 12H874.6a12 12 0 0 1-12-12z" fill-opacity="0"/><path d="M862.6-2152a12 12 0 0 1 12-12h430.8a12 12 0 0 1 12 12v28H862.6z" fill="#383838"/><path d="M862.6-2124h454.8v37H862.6z" fill-opacity="0"/><path d="M862.6-2088h454.8v37H862.6z" fill="#fff" fill-opacity=".06"/><path d="M862.6-2052h454.8v37H862.6z" fill-opacity="0"/><path d="M862.6-2016h454.8v24a12 12 0 0 1-12 12H874.6a12 12 0 0 1-12-12z" fill="#fff" fill-opacity=".06"/><path d="M863.6-2124h452.8-452.8zM862.6-2152a12 12 0 0 1 12-12h430.8a12 12 0 0 1 12 12v160a12 12 0 0 1-12 12H874.6a12 12 0 0 1-12-12zM922.6-2123v142zM1174.48-2123v142z" stroke="#383838" stroke-width="2" fill="none"/><use xlink:href="#z" transform="matrix(1,0,0,1,872.5911599013432,-2164) translate(193.06423611111111 23.49392361111111)"/><use xlink:href="#b" transform="matrix(1,0,0,1,867.5911599013432,-2121.5) translate(0 21.48394097222222)"/><use xlink:href="#c" transform="matrix(1,0,0,1,867.5911599013432,-2121.5) translate(12.217881944444445 21.48394097222222)"/><use xlink:href="#b" transform="matrix(1,0,0,1,927.5911599013432,-2121.5) translate(0 21.48394097222222)"/><use xlink:href="#d" transform="matrix(1,0,0,1,927.5911599013432,-2121.5) translate(12.217881944444445 21.48394097222222)"/><use xlink:href="#b" transform="matrix(1,0,0,1,1179.4829253088405,-2121.5) translate(0 21.48394097222222)"/><use xlink:href="#e" transform="matrix(1,0,0,1,1179.4829253088405,-2121.5) translate(12.217881944444445 21.48394097222222)"/><use xlink:href="#b" transform="matrix(1,0,0,1,927.5911599013432,-2085.5) translate(0 21.48394097222222)"/><use xlink:href="#h" transform="matrix(1,0,0,1,927.5911599013432,-2085.5) translate(12.217881944444445 21.48394097222222)"/><use xlink:href="#b" transform="matrix(1,0,0,1,1179.4829253088405,-2085.5) translate(0 21.48394097222222)"/><use xlink:href="#i" transform="matrix(1,0,0,1,1179.4829253088405,-2085.5) translate(12.217881944444445 21.48394097222222)"/><use xlink:href="#b" transform="matrix(1,0,0,1,927.5911599013432,-2049.5) translate(0 21.48394097222222)"/><use xlink:href="#l" transform="matrix(1,0,0,1,927.5911599013432,-2049.5) translate(12.217881944444445 21.48394097222222)"/><use xlink:href="#b" transform="matrix(1,0,0,1,1179.4829253088405,-2049.5) translate(0 21.48394097222222)"/><use xlink:href="#m" transform="matrix(1,0,0,1,1179.4829253088405,-2049.5) translate(12.217881944444445 21.48394097222222)"/><use xlink:href="#b" transform="matrix(1,0,0,1,927.5911599013432,-2013.5) translate(0 21.48394097222222)"/><use xlink:href="#n" transform="matrix(1,0,0,1,927.5911599013432,-2013.5) translate(12.217881944444445 21.48394097222222)"/><use xlink:href="#b" transform="matrix(1,0,0,1,1179.4829253088405,-2013.5) translate(0 21.48394097222222)"/><use xlink:href="#m" transform="matrix(1,0,0,1,1179.4829253088405,-2013.5) translate(12.217881944444445 21.48394097222222)"/><path d="M304.57-2360a12 12 0 0 1 12-12h386.86a12 12 0 0 1 12 12v232a12 12 0 0 1-12 12H316.57a12 12 0 0 1-12-12z" fill-opacity="0"/><path d="M304.57-2360a12 12 0 0 1 12-12h386.86a12 12 0 0 1 12 12v28H304.57z" fill="#383838"/><path d="M304.57-2332h410.86v37H304.57z" fill-opacity="0"/><path d="M304.57-2296h410.86v37H304.57z" fill="#fff" fill-opacity=".06"/><path d="M304.57-2260h410.86v37H304.57z" fill-opacity="0"/><path d="M304.57-2224h410.86v37H304.57z" fill="#fff" fill-opacity=".06"/><path d="M304.57-2188h410.86v37H304.57z" fill-opacity="0"/><path d="M304.57-2152h410.86v24a12 12 0 0 1-12 12H316.57a12 12 0 0 1-12-12z" fill="#fff" fill-opacity=".06"/><path d="M305.57-2332h408.86-408.86zM304.57-2360a12 12 0 0 1 12-12h386.86a12 12 0 0 1 12 12v232a12 12 0 0 1-12 12H316.57a12 12 0 0 1-12-12zM374.55-2331v214zM577.2-2331v214z" stroke="#383838" stroke-width="2" fill="none"/><use xlink:href="#A" transform="matrix(1,0,0,1,314.5661545330798,-2372) translate(140.51953125 23.49392361111111)"/><use xlink:href="#b" transform="matrix(1,0,0,1,309.5661545330798,-2329.5) translate(0 21.48394097222222)"/><use xlink:href="#c" transform="matrix(1,0,0,1,309.5661545330798,-2329.5) translate(12.217881944444445 21.48394097222222)"/><use xlink:href="#b" transform="matrix(1,0,0,1,379.5484743357668,-2329.5) translate(0 21.48394097222222)"/><use xlink:href="#d" transform="matrix(1,0,0,1,379.5484743357668,-2329.5) translate(12.217881944444445 21.48394097222222)"/><use xlink:href="#b" transform="matrix(1,0,0,1,582.2061021271234,-2329.5) translate(0 21.48394097222222)"/><use xlink:href="#e" transform="matrix(1,0,0,1,582.2061021271234,-2329.5) translate(12.217881944444445 21.48394097222222)"/><use xlink:href="#b" transform="matrix(1,0,0,1,309.5661545330798,-2293.5) translate(0 21.48394097222222)"/><use xlink:href="#f" transform="matrix(1,0,0,1,309.5661545330798,-2293.5) translate(12.217881944444445 21.48394097222222)"/><use xlink:href="#b" transform="matrix(1,0,0,1,379.5484743357668,-2293.5) translate(0 21.48394097222222)"/><use xlink:href="#B" transform="matrix(1,0,0,1,379.5484743357668,-2293.5) translate(12.217881944444445 21.48394097222222)"/><use xlink:href="#b" transform="matrix(1,0,0,1,582.2061021271234,-2293.5) translate(0 21.48394097222222)"/><use xlink:href="#i" transform="matrix(1,0,0,1,582.2061021271234,-2293.5) translate(12.217881944444445 21.48394097222222)"/><use xlink:href="#b" transform="matrix(1,0,0,1,309.5661545330798,-2257.5) translate(0 21.48394097222222)"/><use xlink:href="#C" transform="matrix(1,0,0,1,309.5661545330798,-2257.5) translate(12.217881944444445 21.48394097222222)"/><use xlink:href="#b" transform="matrix(1,0,0,1,379.5484743357668,-2257.5) translate(0 21.48394097222222)"/><use xlink:href="#D" transform="matrix(1,0,0,1,379.5484743357668,-2257.5) translate(12.217881944444445 21.48394097222222)"/><use xlink:href="#b" transform="matrix(1,0,0,1,582.2061021271234,-2257.5) translate(0 21.48394097222222)"/><use xlink:href="#e" transform="matrix(1,0,0,1,582.2061021271234,-2257.5) translate(12.217881944444445 21.48394097222222)"/><use xlink:href="#b" transform="matrix(1,0,0,1,379.5484743357668,-2221.5) translate(0 21.48394097222222)"/><use xlink:href="#E" transform="matrix(1,0,0,1,379.5484743357668,-2221.5) translate(12.217881944444445 21.48394097222222)"/><use xlink:href="#b" transform="matrix(1,0,0,1,582.2061021271234,-2221.5) translate(0 21.48394097222222)"/><use xlink:href="#i" transform="matrix(1,0,0,1,582.2061021271234,-2221.5) translate(12.217881944444445 21.48394097222222)"/><use xlink:href="#b" transform="matrix(1,0,0,1,379.5484743357668,-2185.5) translate(0 21.48394097222222)"/><use xlink:href="#l" transform="matrix(1,0,0,1,379.5484743357668,-2185.5) translate(12.217881944444445 21.48394097222222)"/><use xlink:href="#b" transform="matrix(1,0,0,1,582.2061021271234,-2185.5) translate(0 21.48394097222222)"/><use xlink:href="#m" transform="matrix(1,0,0,1,582.2061021271234,-2185.5) translate(12.217881944444445 21.48394097222222)"/><use xlink:href="#b" transform="matrix(1,0,0,1,379.5484743357668,-2149.5) translate(0 21.48394097222222)"/><use xlink:href="#n" transform="matrix(1,0,0,1,379.5484743357668,-2149.5) translate(12.217881944444445 21.48394097222222)"/><use xlink:href="#b" transform="matrix(1,0,0,1,582.2061021271234,-2149.5) translate(0 21.48394097222222)"/><use xlink:href="#m" transform="matrix(1,0,0,1,582.2061021271234,-2149.5) translate(12.217881944444445 21.48394097222222)"/><path d="M900-3028a12 12 0 0 1 12-12h336a12 12 0 0 1 12 12v160a12 12 0 0 1-12 12H912a12 12 0 0 1-12-12z" fill-opacity="0"/><path d="M900-3028a12 12 0 0 1 12-12h336a12 12 0 0 1 12 12v28H900z" fill="#383838"/><path d="M900-3000h360v37H900z" fill-opacity="0"/><path d="M900-2964h360v37H900z" fill="#fff" fill-opacity=".06"/><path d="M900-2928h360v37H900z" fill-opacity="0"/><path d="M900-2892h360v24a12 12 0 0 1-12 12H912a12 12 0 0 1-12-12z" fill="#fff" fill-opacity=".06"/><path d="M901-3000h358-358zM900-3028a12 12 0 0 1 12-12h336a12 12 0 0 1 12 12v160a12 12 0 0 1-12 12H912a12 12 0 0 1-12-12zM960-2999v142zM1120-2999v142z" stroke="#383838" stroke-width="2" fill="none"/><use xlink:href="#F" transform="matrix(1,0,0,1,910,-3040) translate(115.51953125 23.49392361111111)"/><use xlink:href="#b" transform="matrix(1,0,0,1,905,-2997.5) translate(0 21.48394097222222)"/><use xlink:href="#c" transform="matrix(1,0,0,1,905,-2997.5) translate(12.217881944444445 21.48394097222222)"/><use xlink:href="#b" transform="matrix(1,0,0,1,965,-2997.5) translate(0 21.48394097222222)"/><use xlink:href="#d" transform="matrix(1,0,0,1,965,-2997.5) translate(12.217881944444445 21.48394097222222)"/><use xlink:href="#b" transform="matrix(1,0,0,1,1125,-2997.5) translate(0 21.48394097222222)"/><use xlink:href="#e" transform="matrix(1,0,0,1,1125,-2997.5) translate(12.217881944444445 21.48394097222222)"/><use xlink:href="#b" transform="matrix(1,0,0,1,965,-2961.5) translate(0 21.48394097222222)"/><use xlink:href="#h" transform="matrix(1,0,0,1,965,-2961.5) translate(12.217881944444445 21.48394097222222)"/><use xlink:href="#b" transform="matrix(1,0,0,1,1125,-2961.5) translate(0 21.48394097222222)"/><use xlink:href="#i" transform="matrix(1,0,0,1,1125,-2961.5) translate(12.217881944444445 21.48394097222222)"/><use xlink:href="#b" transform="matrix(1,0,0,1,965,-2925.5) translate(0 21.48394097222222)"/><use xlink:href="#l" transform="matrix(1,0,0,1,965,-2925.5) translate(12.217881944444445 21.48394097222222)"/><use xlink:href="#b" transform="matrix(1,0,0,1,1125,-2925.5) translate(0 21.48394097222222)"/><use xlink:href="#m" transform="matrix(1,0,0,1,1125,-2925.5) translate(12.217881944444445 21.48394097222222)"/><use xlink:href="#b" transform="matrix(1,0,0,1,965,-2889.5) translate(0 21.48394097222222)"/><use xlink:href="#n" transform="matrix(1,0,0,1,965,-2889.5) translate(12.217881944444445 21.48394097222222)"/><use xlink:href="#b" transform="matrix(1,0,0,1,1125,-2889.5) translate(0 21.48394097222222)"/><use xlink:href="#m" transform="matrix(1,0,0,1,1125,-2889.5) translate(12.217881944444445 21.48394097222222)"/><path d="M-280-2748a12 12 0 0 1 12-12h376a12 12 0 0 1 12 12v268a12 12 0 0 1-12 12h-376a12 12 0 0 1-12-12z" fill-opacity="0"/><path d="M-280-2748a12 12 0 0 1 12-12h376a12 12 0 0 1 12 12v28h-400z" fill="#383838"/><path d="M-280-2720h400v37h-400z" fill-opacity="0"/><path d="M-280-2684h400v37h-400z" fill="#fff" fill-opacity=".06"/><path d="M-280-2648h400v37h-400z" fill-opacity="0"/><path d="M-280-2612h400v37h-400z" fill="#fff" fill-opacity=".06"/><path d="M-280-2576h400v37h-400z" fill-opacity="0"/><path d="M-280-2540h400v37h-400z" fill="#fff" fill-opacity=".06"/><path d="M-280-2504h400v24a12 12 0 0 1-12 12h-376a12 12 0 0 1-12-12z" fill-opacity="0"/><path d="M-279-2720h398-398zM-280-2748a12 12 0 0 1 12-12h376a12 12 0 0 1 12 12v268a12 12 0 0 1-12 12h-376a12 12 0 0 1-12-12zM-207.93-2719v250zM-48.6-2719v250z" stroke="#383838" stroke-width="2" fill="none"/><use xlink:href="#G" transform="matrix(1,0,0,1,-270,-2760) translate(110.5837673611111 23.49392361111111)"/><use xlink:href="#b" transform="matrix(1,0,0,1,-275,-2717.5) translate(0 21.48394097222222)"/><use xlink:href="#c" transform="matrix(1,0,0,1,-275,-2717.5) translate(12.217881944444445 21.48394097222222)"/><use xlink:href="#b" transform="matrix(1,0,0,1,-202.92924629653703,-2717.5) translate(0 21.48394097222222)"/><use xlink:href="#d" transform="matrix(1,0,0,1,-202.92924629653703,-2717.5) translate(12.217881944444445 21.48394097222222)"/><use xlink:href="#b" transform="matrix(1,0,0,1,-43.6065999903185,-2717.5) translate(0 21.48394097222222)"/><use xlink:href="#e" transform="matrix(1,0,0,1,-43.6065999903185,-2717.5) translate(12.217881944444445 21.48394097222222)"/><use xlink:href="#b" transform="matrix(1,0,0,1,-275,-2681.5) translate(0 21.48394097222222)"/><use xlink:href="#f" transform="matrix(1,0,0,1,-275,-2681.5) translate(12.217881944444445 21.48394097222222)"/><g><use xlink:href="#b" transform="matrix(1,0,0,1,-202.92924629653703,-2681.5) translate(0 21.48394097222222)"/><use xlink:href="#H" transform="matrix(1,0,0,1,-202.92924629653703,-2681.5) translate(12.217881944444445 21.48394097222222)"/></g><g><use xlink:href="#b" transform="matrix(1,0,0,1,-43.6065999903185,-2681.5) translate(0 21.48394097222222)"/><use xlink:href="#e" transform="matrix(1,0,0,1,-43.6065999903185,-2681.5) translate(12.217881944444445 21.48394097222222)"/></g><g><use xlink:href="#b" transform="matrix(1,0,0,1,-275,-2645.5) translate(0 18.99392361111111)"/><use xlink:href="#C" transform="matrix(1,0,0,1,-275,-2645.5) translate(12.217881944444445 18.99392361111111)"/></g><g><use xlink:href="#b" transform="matrix(1,0,0,1,-202.92924629653703,-2645.5) translate(0 18.99392361111111)"/><use xlink:href="#I" transform="matrix(1,0,0,1,-202.92924629653703,-2645.5) translate(12.217881944444445 18.99392361111111)"/></g><g><use xlink:href="#b" transform="matrix(1,0,0,1,-43.6065999903185,-2645.5) translate(0 18.99392361111111)"/><use xlink:href="#e" transform="matrix(1,0,0,1,-43.6065999903185,-2645.5) translate(12.217881944444445 18.99392361111111)"/></g><g><use xlink:href="#b" transform="matrix(1,0,0,1,-202.92924629653703,-2609.5) translate(0 18.99392361111111)"/><use xlink:href="#J" transform="matrix(1,0,0,1,-202.92924629653703,-2609.5) translate(12.217881944444445 18.99392361111111)"/></g><g><use xlink:href="#b" transform="matrix(1,0,0,1,-43.6065999903185,-2609.5) translate(0 18.99392361111111)"/><use xlink:href="#K" transform="matrix(1,0,0,1,-43.6065999903185,-2609.5) translate(12.217881944444445 18.99392361111111)"/></g><g><use xlink:href="#b" transform="matrix(1,0,0,1,-202.92924629653703,-2573.5) translate(0 18.99392361111111)"/><use xlink:href="#L" transform="matrix(1,0,0,1,-202.92924629653703,-2573.5) translate(12.217881944444445 18.99392361111111)"/></g><g><use xlink:href="#b" transform="matrix(1,0,0,1,-43.6065999903185,-2573.5) translate(0 18.99392361111111)"/><use xlink:href="#M" transform="matrix(1,0,0,1,-43.6065999903185,-2573.5) translate(12.217881944444445 18.99392361111111)"/></g><g><use xlink:href="#b" transform="matrix(1,0,0,1,-202.92924629653703,-2537.5) translate(0 21.48394097222222)"/><use xlink:href="#l" transform="matrix(1,0,0,1,-202.92924629653703,-2537.5) translate(12.217881944444445 21.48394097222222)"/></g><g><use xlink:href="#b" transform="matrix(1,0,0,1,-43.6065999903185,-2537.5) translate(0 21.48394097222222)"/><use xlink:href="#m" transform="matrix(1,0,0,1,-43.6065999903185,-2537.5) translate(12.217881944444445 21.48394097222222)"/></g><g><use xlink:href="#b" transform="matrix(1,0,0,1,-202.92924629653703,-2501.5) translate(0 21.48394097222222)"/><use xlink:href="#n" transform="matrix(1,0,0,1,-202.92924629653703,-2501.5) translate(12.217881944444445 21.48394097222222)"/></g><g><use xlink:href="#b" transform="matrix(1,0,0,1,-43.6065999903185,-2501.5) translate(0 21.48394097222222)"/><use xlink:href="#m" transform="matrix(1,0,0,1,-43.6065999903185,-2501.5) translate(12.217881944444445 21.48394097222222)"/></g><path d="M-260-2396a12 12 0 0 1 12-12H88a12 12 0 0 1 12 12v196a12 12 0 0 1-12 12h-336a12 12 0 0 1-12-12z" fill-opacity="0"/><path d="M-260-2396a12 12 0 0 1 12-12H88a12 12 0 0 1 12 12v28h-360z" fill="#383838"/><path d="M-260-2368h360v37h-360z" fill-opacity="0"/><path d="M-260-2332h360v37h-360z" fill="#fff" fill-opacity=".06"/><path d="M-260-2296h360v37h-360z" fill-opacity="0"/><path d="M-260-2260h360v37h-360z" fill="#fff" fill-opacity=".06"/><path d="M-260-2224h360v24a12 12 0 0 1-12 12h-336a12 12 0 0 1-12-12z" fill-opacity="0"/><path d="M-259-2368H99h-358zM-260-2396a12 12 0 0 1 12-12H88a12 12 0 0 1 12 12v196a12 12 0 0 1-12 12h-336a12 12 0 0 1-12-12zM-197.67-2367v178zM-32.67-2367v178z" stroke="#383838" stroke-width="2" fill="none"/><g><use xlink:href="#N" transform="matrix(1,0,0,1,-250,-2408) translate(121.12847222222223 23.49392361111111)"/></g><g><use xlink:href="#b" transform="matrix(1,0,0,1,-255,-2365.5) translate(0 21.48394097222222)"/><use xlink:href="#c" transform="matrix(1,0,0,1,-255,-2365.5) translate(12.217881944444445 21.48394097222222)"/></g><g><use xlink:href="#b" transform="matrix(1,0,0,1,-192.66666666666666,-2365.5) translate(0 21.48394097222222)"/><use xlink:href="#d" transform="matrix(1,0,0,1,-192.66666666666666,-2365.5) translate(12.217881944444445 21.48394097222222)"/></g><g><use xlink:href="#b" transform="matrix(1,0,0,1,-27.666666666666686,-2365.5) translate(0 21.48394097222222)"/><use xlink:href="#e" transform="matrix(1,0,0,1,-27.666666666666686,-2365.5) translate(12.217881944444445 21.48394097222222)"/></g><g><use xlink:href="#b" transform="matrix(1,0,0,1,-192.66666666666666,-2329.5) translate(0 21.48394097222222)"/><use xlink:href="#O" transform="matrix(1,0,0,1,-192.66666666666666,-2329.5) translate(12.217881944444445 21.48394097222222)"/></g><g><use xlink:href="#b" transform="matrix(1,0,0,1,-27.666666666666686,-2329.5) translate(0 21.48394097222222)"/><use xlink:href="#i" transform="matrix(1,0,0,1,-27.666666666666686,-2329.5) translate(12.217881944444445 21.48394097222222)"/></g><g><use xlink:href="#b" transform="matrix(1,0,0,1,-192.66666666666666,-2293.5) translate(0 21.48394097222222)"/><use xlink:href="#P" transform="matrix(1,0,0,1,-192.66666666666666,-2293.5) translate(12.217881944444445 21.48394097222222)"/></g><g><use xlink:href="#b" transform="matrix(1,0,0,1,-27.666666666666686,-2293.5) translate(0 21.48394097222222)"/><use xlink:href="#i" transform="matrix(1,0,0,1,-27.666666666666686,-2293.5) translate(12.217881944444445 21.48394097222222)"/></g><g><use xlink:href="#b" transform="matrix(1,0,0,1,-192.66666666666666,-2257.5) translate(0 21.48394097222222)"/><use xlink:href="#l" transform="matrix(1,0,0,1,-192.66666666666666,-2257.5) translate(12.217881944444445 21.48394097222222)"/></g><g><use xlink:href="#b" transform="matrix(1,0,0,1,-27.666666666666686,-2257.5) translate(0 21.48394097222222)"/><use xlink:href="#m" transform="matrix(1,0,0,1,-27.666666666666686,-2257.5) translate(12.217881944444445 21.48394097222222)"/></g><g><use xlink:href="#b" transform="matrix(1,0,0,1,-192.66666666666666,-2221.5) translate(0 21.48394097222222)"/><use xlink:href="#n" transform="matrix(1,0,0,1,-192.66666666666666,-2221.5) translate(12.217881944444445 21.48394097222222)"/></g><g><use xlink:href="#b" transform="matrix(1,0,0,1,-27.666666666666686,-2221.5) translate(0 21.48394097222222)"/><use xlink:href="#m" transform="matrix(1,0,0,1,-27.666666666666686,-2221.5) translate(12.217881944444445 21.48394097222222)"/></g><path d="M-260-3028a12 12 0 0 1 12-12h356a12 12 0 0 1 12 12v196a12 12 0 0 1-12 12h-356a12 12 0 0 1-12-12z" fill-opacity="0"/><path d="M-260-3028a12 12 0 0 1 12-12h356a12 12 0 0 1 12 12v28h-380z" fill="#383838"/><path d="M-260-3000h380v37h-380z" fill-opacity="0"/><path d="M-260-2964h380v37h-380z" fill="#fff" fill-opacity=".06"/><path d="M-260-2928h380v37h-380z" fill-opacity="0"/><path d="M-260-2892h380v37h-380z" fill="#fff" fill-opacity=".06"/><path d="M-260-2856h380v24a12 12 0 0 1-12 12h-356a12 12 0 0 1-12-12z" fill-opacity="0"/><path d="M-259-3000h378-378zM-260-3028a12 12 0 0 1 12-12h356a12 12 0 0 1 12 12v196a12 12 0 0 1-12 12h-356a12 12 0 0 1-12-12zM-191-2999v178zM-14-2999v178z" stroke="#383838" stroke-width="2" fill="none"/><g><use xlink:href="#Q" transform="matrix(1,0,0,1,-249.9999999999999,-3040) translate(143.34635416666666 23.49392361111111)"/></g><g><use xlink:href="#b" transform="matrix(1,0,0,1,-254.9999999999999,-2997.5) translate(0 21.48394097222222)"/><use xlink:href="#c" transform="matrix(1,0,0,1,-254.9999999999999,-2997.5) translate(12.217881944444445 21.48394097222222)"/></g><g><use xlink:href="#b" transform="matrix(1,0,0,1,-185.9999999999999,-2997.5) translate(0 21.48394097222222)"/><use xlink:href="#d" transform="matrix(1,0,0,1,-185.9999999999999,-2997.5) translate(12.217881944444445 21.48394097222222)"/></g><g><use xlink:href="#b" transform="matrix(1,0,0,1,-8.999999999999886,-2997.5) translate(0 21.48394097222222)"/><use xlink:href="#e" transform="matrix(1,0,0,1,-8.999999999999886,-2997.5) translate(12.217881944444445 21.48394097222222)"/></g><g><use xlink:href="#b" transform="matrix(1,0,0,1,-254.9999999999999,-2961.5) translate(0 21.48394097222222)"/><use xlink:href="#f" transform="matrix(1,0,0,1,-254.9999999999999,-2961.5) translate(12.217881944444445 21.48394097222222)"/></g><g><use xlink:href="#b" transform="matrix(1,0,0,1,-185.9999999999999,-2961.5) translate(0 21.48394097222222)"/><use xlink:href="#p" transform="matrix(1,0,0,1,-185.9999999999999,-2961.5) translate(12.217881944444445 21.48394097222222)"/></g><g><use xlink:href="#b" transform="matrix(1,0,0,1,-8.999999999999886,-2961.5) translate(0 21.48394097222222)"/><use xlink:href="#e" transform="matrix(1,0,0,1,-8.999999999999886,-2961.5) translate(12.217881944444445 21.48394097222222)"/></g><g><use xlink:href="#b" transform="matrix(1,0,0,1,-185.9999999999999,-2925.5) translate(0 21.48394097222222)"/><use xlink:href="#R" transform="matrix(1,0,0,1,-185.9999999999999,-2925.5) translate(12.217881944444445 21.48394097222222)"/></g><g><use xlink:href="#b" transform="matrix(1,0,0,1,-8.999999999999886,-2925.5) translate(0 21.48394097222222)"/><use xlink:href="#M" transform="matrix(1,0,0,1,-8.999999999999886,-2925.5) translate(12.217881944444445 21.48394097222222)"/></g><g><use xlink:href="#b" transform="matrix(1,0,0,1,-185.9999999999999,-2889.5) translate(0 21.48394097222222)"/><use xlink:href="#l" transform="matrix(1,0,0,1,-185.9999999999999,-2889.5) translate(12.217881944444445 21.48394097222222)"/></g><g><use xlink:href="#b" transform="matrix(1,0,0,1,-8.999999999999886,-2889.5) translate(0 21.48394097222222)"/><use xlink:href="#m" transform="matrix(1,0,0,1,-8.999999999999886,-2889.5) translate(12.217881944444445 21.48394097222222)"/></g><g><use xlink:href="#b" transform="matrix(1,0,0,1,-185.9999999999999,-2853.5) translate(0 21.48394097222222)"/><use xlink:href="#n" transform="matrix(1,0,0,1,-185.9999999999999,-2853.5) translate(12.217881944444445 21.48394097222222)"/></g><g><use xlink:href="#b" transform="matrix(1,0,0,1,-8.999999999999886,-2853.5) translate(0 21.48394097222222)"/><use xlink:href="#m" transform="matrix(1,0,0,1,-8.999999999999886,-2853.5) translate(12.217881944444445 21.48394097222222)"/></g><path d="M741-2946h103a6 6 0 0 0 6-6v-24.2a6 6 0 0 1 6-6h23" stroke="#b4b4b4" stroke-width="3" fill="none"/><path d="M701.67-2946h20m-20 10l20-10m-20-10l20 10m0 .1v-.1a10 10 0 0 1 10-10 10 10 0 0 1 10 10 10 10 0 0 1-10 10 10 10 0 0 1-10-10v-.1" stroke="#b4b4b4" stroke-width="3" fill="#fff"/><path d="M899-2982.2h-20m10-10v20m-10-20v20M879-2702.17h-63a6 6 0 0 1-6-6v-268.3a6 6 0 0 0-6-6h-83M899-2702.17h-20m10-10v20m-10-20v20M701-2982.46h20m-10 10v-20m10 20v-20" stroke="#b4b4b4" stroke-width="3" fill="none"/><path d="M859-2386.18h-43a6 6 0 0 1-6-6v-584.28a6 6 0 0 0-6-6h-83" stroke="#b4b4b4" stroke-width="3" fill="none"/><path d="M898.33-2386.18h-20m20-10l-20 10m20 10l-20-10m-20 .1v-.1a10 10 0 0 1 10-10 10 10 0 0 1 10 10 10 10 0 0 1-10 10 10 10 0 0 1-10-10v-.1" stroke="#b4b4b4" stroke-width="3" fill="#fff"/><path d="M701-2982.46h20m-10 10v-20m10 20v-20M161-2946.08h23a6 6 0 0 0 6-6V-2976a6 6 0 0 1 6-6h103" stroke="#b4b4b4" stroke-width="3" fill="none"/><path d="M121.67-2946.08h20m-20 10l20-10m-20-10l20 10m0 .1v-.1a10 10 0 0 1 10-10 10 10 0 0 1 10 10 10 10 0 0 1-10 10 10 10 0 0 1-10-10v-.1" stroke="#b4b4b4" stroke-width="3" fill="#fff"/><path d="M319-2982h-20m10-10v20m-10-20v20M-301-2666.26h-33a6 6 0 0 1-6-6v-304a6 6 0 0 1 6-6h53M-281.67-2666.26h-20m20-10l-20 10m20 10l-20-10m0-10v20M-261-2982.27h-20m10-10v20m-10-20v20M-321-2630.08h-13a6 6 0 0 0-6 6v229.58a6 6 0 0 0 6 6h53" stroke="#b4b4b4" stroke-width="3" fill="none"/><path d="M-281.67-2630.08h-20m20-10l-20 10m20 10l-20-10m-20 .1v-.1a10 10 0 0 1 10-10 10 10 0 0 1 10 10 10 10 0 0 1-10 10 10 10 0 0 1-10-10v-.1" stroke="#b4b4b4" stroke-width="3" fill="#fff"/><path d="M-261.67-2388.5h-20m20-10l-20 10m20 10l-20-10m0-10v20M766-2594.16h8a6 6 0 0 1 6 6v159.8a6 6 0 0 0 6 6h93" stroke="#b4b4b4" stroke-width="3" fill="none"/><path d="M726.67-2594.16h20m-20 10l20-10m-20-10l20 10m0 .1v-.1a10 10 0 0 1 10-10 10 10 0 0 1 10 10 10 10 0 0 1-10 10 10 10 0 0 1-10-10v-.1" stroke="#b4b4b4" stroke-width="3" fill="#fff"/><path d="M899-2422.37h-20m10-10v20m-10-20v20M254-2594.16h-8a6 6 0 0 0-6 6v231.87a6 6 0 0 1-6 6H121" stroke="#b4b4b4" stroke-width="3" fill="none"/><path d="M293.33-2594.16h-20m20-10l-20 10m20 10l-20-10m-20 .1v-.1a10 10 0 0 1 10-10 10 10 0 0 1 10 10 10 10 0 0 1-10 10 10 10 0 0 1-10-10v-.1" stroke="#b4b4b4" stroke-width="3" fill="#fff"/><path d="M101-2350.3h20m-10 10v-20m10 20v-20M756.43-2278H774a6 6 0 0 1 6 6v159.85a6 6 0 0 0 6 6h55.6" stroke="#b4b4b4" stroke-width="3" fill="none"/><path d="M717.1-2278h20m-20 10l20-10m-20-10l20 10m0 .1v-.1a10 10 0 0 1 10-10 10 10 0 0 1 10 10 10 10 0 0 1-10 10 10 10 0 0 1-10-10v-.1" stroke="#b4b4b4" stroke-width="3" fill="#fff"/><path d="M861.6-2106.15h-20m10-10v20m-10-20v20M756.43-2242H834a6 6 0 0 0 6-6v-168.37a6 6 0 0 1 6-6h33" stroke="#b4b4b4" stroke-width="3" fill="none"/><path d="M717.1-2242h20m-20 10l20-10m-20-10l20 10m0 .1v-.1a10 10 0 0 1 10-10 10 10 0 0 1 10 10 10 10 0 0 1-10 10 10 10 0 0 1-10-10v-.1" stroke="#b4b4b4" stroke-width="3" fill="#fff"/><path d="M899-2422.37h-20m10-10v20m-10-20v20M263.57-2242H156a6 6 0 0 1-6-6v-96.3a6 6 0 0 0-6-6h-23" stroke="#b4b4b4" stroke-width="3" fill="none"/><path d="M302.9-2242h-20m20-10l-20 10m20 10l-20-10m-20 .1v-.1a10 10 0 0 1 10-10 10 10 0 0 1 10 10 10 10 0 0 1-10 10 10 10 0 0 1-10-10v-.1" stroke="#b4b4b4" stroke-width="3" fill="#fff"/><path d="M101-2350.3h20m-10 10v-20m10 20v-20" stroke="#b4b4b4" stroke-width="3" fill="none"/><defs><path fill="#fff" d="M473 18c-220 0-313-135-313-366v-656h174v642c-3 180 88 267 236 222 102-31 154-115 223-198v-666h174V0H811l-6-162C719-69 642 18 473 18" id="S"/><path fill="#fff" d="M606-877c-121 0-233 19-233 129 0 83 62 103 129 132 184 79 459 86 453 342C950-84 802-14 633 11c-158 24-319 0-451-31v-160c143 43 393 80 533 17 74-33 79-144 16-187-114-78-337-102-446-194-68-57-120-174-71-285 57-130 197-194 394-193 96 1 193 10 281 29v155c-89-22-187-39-283-39" id="T"/><path fill="#fff" d="M573-1022c326 4 462 228 431 576H299c-1 208 123 321 334 319 119-1 227-18 321-43v143C859 0 732 19 608 18c-337 0-491-183-491-518 0-235 102-400 263-480 57-28 121-42 193-42zm254 442c4-185-82-303-262-303-177 0-248 135-266 303h528" id="U"/><path fill="#fff" d="M850-621c13-178-69-293-230-239-108 36-171 127-243 215V0H201v-1004h159l5 185c97-113 183-203 350-203 226 0 320 157 311 401H850" id="V"/><g id="a"><use transform="matrix(0.010850694444444444,0,0,0.010850694444444444,0,0)" xlink:href="#S"/><use transform="matrix(0.010850694444444444,0,0,0.010850694444444444,12.217881944444445,0)" xlink:href="#T"/><use transform="matrix(0.010850694444444444,0,0,0.010850694444444444,24.43576388888889,0)" xlink:href="#U"/><use transform="matrix(0.010850694444444444,0,0,0.010850694444444444,36.653645833333336,0)" xlink:href="#V"/><use transform="matrix(0.010850694444444444,0,0,0.010850694444444444,48.87152777777778,0)" xlink:href="#T"/></g><path fill="#fff" d="M526-1307c285 6 490 114 490 400 0 211-122 333-284 399-102 42-250 40-396 39V0H158v-1307h368zm-24 686c200 0 329-83 329-278 0-177-129-262-313-260H336v538h166" id="W"/><path fill="#fff" d="M1047 0H823L334-641V0H156v-1307h178v607l479-607h211L508-686" id="X"/><g id="c"><use transform="matrix(0.010850694444444444,0,0,0.010850694444444444,0,0)" xlink:href="#W"/><use transform="matrix(0.010850694444444444,0,0,0.010850694444444444,12.217881944444445,0)" xlink:href="#X"/></g><path fill="#fff" d="M502-860H205v-144h473v859h299V0H172v-145h330v-715zm-76-428c0-83 53-137 137-137s137 54 137 137-53 137-137 137-137-54-137-137" id="Y"/><path fill="#fff" d="M799-190C717-73 626 18 457 18c-265 0-348-226-348-499 0-331 165-535 491-535 69 0 130 9 186 25v-422h175V0H805zM588-872c-212 0-301 144-301 380 0 121 17 212 53 272 65 109 192 115 292 30 48-41 100-98 154-175v-466c-52-25-125-41-198-41" id="Z"/><g id="d"><use transform="matrix(0.010850694444444444,0,0,0.010850694444444444,0,0)" xlink:href="#Y"/><use transform="matrix(0.010850694444444444,0,0,0.010850694444444444,12.217881944444445,0)" xlink:href="#Z"/></g><path fill="#fff" d="M478-537c0 379 172 634 388 850L761 420C454 135 300-179 300-524c0-460 218-726 465-965l101 103c-259 255-388 538-388 849" id="aa"/><path fill="#fff" d="M66-1004h198c99 276 208 542 299 826 92-283 200-550 299-826h191L659 0H459" id="ab"/><path fill="#fff" d="M1001-1145L453 0H254l569-1145H117v-162h884v162" id="ac"/><path fill="#fff" d="M365-1489c307 285 461 601 461 950 0 455-216 719-465 959L260 317C390 188 487 54 551-86s96-287 96-440c0-317-129-603-387-856" id="ad"/><g id="e"><use transform="matrix(0.010850694444444444,0,0,0.010850694444444444,0,0)" xlink:href="#S"/><use transform="matrix(0.010850694444444444,0,0,0.010850694444444444,12.217881944444445,0)" xlink:href="#S"/><use transform="matrix(0.010850694444444444,0,0,0.010850694444444444,24.43576388888889,0)" xlink:href="#Y"/><use transform="matrix(0.010850694444444444,0,0,0.010850694444444444,36.653645833333336,0)" xlink:href="#Z"/><use transform="matrix(0.010850694444444444,0,0,0.010850694444444444,48.87152777777778,0)" xlink:href="#aa"/><use transform="matrix(0.010850694444444444,0,0,0.010850694444444444,61.08940972222222,0)" xlink:href="#ab"/><use transform="matrix(0.010850694444444444,0,0,0.010850694444444444,73.30729166666667,0)" xlink:href="#ac"/><use transform="matrix(0.010850694444444444,0,0,0.010850694444444444,85.52517361111111,0)" xlink:href="#ad"/></g><path fill="#fff" d="M942-1155H387v424h526v149H387V0H205v-1307h737v152" id="ae"/><path fill="#fff" d="M997 0H176v-162h336v-954L199-946l-64-148 416-219h154v1151h292V0" id="af"/><g id="f"><use transform="matrix(0.010850694444444444,0,0,0.010850694444444444,0,0)" xlink:href="#ae"/><use transform="matrix(0.010850694444444444,0,0,0.010850694444444444,12.217881944444445,0)" xlink:href="#X"/><use transform="matrix(0.010850694444444444,0,0,0.010850694444444444,24.43576388888889,0)" xlink:href="#af"/></g><path fill="#fff" d="M674-135c106 0 191-25 266-64v162C856-5 764 14 653 14c-320 1-498-181-495-506 3-252 120-412 301-488 138-58 353-44 481 9v166c-102-55-270-94-398-39-123 53-200 170-202 346-3 231 115 363 334 363" id="ag"/><path fill="#fff" d="M573-1022c313 0 461 194 461 512 0 247-104 414-279 490-59 26-127 38-202 38C239 18 92-177 92-496c0-247 105-411 279-488 59-26 127-38 202-38zm-10 893c211 0 293-160 293-373 0-219-81-372-293-372-211 0-293 160-293 372 0 219 81 373 293 373" id="ah"/><path fill="#fff" d="M793-641c8-166-82-268-237-221-101 31-153 114-222 196V0H160v-1004h155l7 162c85-94 163-180 331-180 220 0 314 136 314 367V0H793v-641" id="ai"/><path fill="#fff" d="M745-133c79-1 154-13 224-31v150C894 5 810 14 719 14 473 14 345-92 344-334v-524H63v-146h281v-276l174-45v321h451v146H518v510c0 146 80 215 227 215" id="aj"/><path fill="#fff" d="M59 254c61 8 139 15 193-6C362 206 416 109 467 0L66-1004h198c101 274 214 536 305 820 99-272 195-547 293-820h191L711-106c-88 217-174 408-380 492-75 31-174 35-272 26V254" id="ak"/><path fill="#fff" d="M1126 410H0V266h1126v144" id="al"/><g id="g"><use transform="matrix(0.010850694444444444,0,0,0.010850694444444444,0,0)" xlink:href="#ag"/><use transform="matrix(0.010850694444444444,0,0,0.010850694444444444,12.217881944444445,0)" xlink:href="#ah"/><use transform="matrix(0.010850694444444444,0,0,0.010850694444444444,24.43576388888889,0)" xlink:href="#S"/><use transform="matrix(0.010850694444444444,0,0,0.010850694444444444,36.653645833333336,0)" xlink:href="#ai"/><use transform="matrix(0.010850694444444444,0,0,0.010850694444444444,48.87152777777778,0)" xlink:href="#aj"/><use transform="matrix(0.010850694444444444,0,0,0.010850694444444444,61.08940972222222,0)" xlink:href="#V"/><use transform="matrix(0.010850694444444444,0,0,0.010850694444444444,73.30729166666667,0)" xlink:href="#ak"/><use transform="matrix(0.010850694444444444,0,0,0.010850694444444444,85.52517361111111,0)" xlink:href="#al"/><use transform="matrix(0.010850694444444444,0,0,0.010850694444444444,97.74305555555556,0)" xlink:href="#Y"/><use transform="matrix(0.010850694444444444,0,0,0.010850694444444444,109.9609375,0)" xlink:href="#Z"/></g><path fill="#fff" d="M569-1022c237 0 392 95 392 330V0H805l-4-135C708-44 615 18 457 18c-201 0-324-91-324-286 0-229 187-325 445-322h208v-88c-3-130-88-198-231-196-133 2-233 32-338 73v-157c100-35 217-64 352-64zm-84 895c127 0 213-72 301-152v-178H565c-144 2-248 45-248 183 0 100 64 147 168 147" id="am"/><path fill="#fff" d="M618-805c53-101 87-217 229-217 126 0 189 97 189 291V0H876v-721c-4-74 6-150-62-156-67 11-83 68-116 123-17 29-35 66-56 109V0H483c-2-263-3-534-3-791 0-62-37-106-94-76-63 54-91 134-136 222V0H90v-1004h133l8 191c52-100 85-209 222-209 121 0 165 84 165 217" id="an"/><g id="h"><use transform="matrix(0.010850694444444444,0,0,0.010850694444444444,0,0)" xlink:href="#ai"/><use transform="matrix(0.010850694444444444,0,0,0.010850694444444444,12.217881944444445,0)" xlink:href="#am"/><use transform="matrix(0.010850694444444444,0,0,0.010850694444444444,24.43576388888889,0)" xlink:href="#an"/><use transform="matrix(0.010850694444444444,0,0,0.010850694444444444,36.653645833333336,0)" xlink:href="#U"/></g><path fill="#fff" d="M653-1022c214 0 314 138 314 367V0H793v-641c7-162-80-269-233-221-102 32-153 116-226 196V0H160v-1413h174c-1 190 4 386-6 567 82-92 161-176 325-176" id="ao"/><g id="i"><use transform="matrix(0.010850694444444444,0,0,0.010850694444444444,0,0)" xlink:href="#ab"/><use transform="matrix(0.010850694444444444,0,0,0.010850694444444444,12.217881944444445,0)" xlink:href="#am"/><use transform="matrix(0.010850694444444444,0,0,0.010850694444444444,24.43576388888889,0)" xlink:href="#V"/><use transform="matrix(0.010850694444444444,0,0,0.010850694444444444,36.653645833333336,0)" xlink:href="#ag"/><use transform="matrix(0.010850694444444444,0,0,0.010850694444444444,48.87152777777778,0)" xlink:href="#ao"/><use transform="matrix(0.010850694444444444,0,0,0.010850694444444444,61.08940972222222,0)" xlink:href="#am"/><use transform="matrix(0.010850694444444444,0,0,0.010850694444444444,73.30729166666667,0)" xlink:href="#V"/></g><path fill="#fff" d="M502-1270H205v-143h473v1268h299V0H172v-145h330v-1125" id="ap"/><g id="j"><use transform="matrix(0.010850694444444444,0,0,0.010850694444444444,0,0)" xlink:href="#U"/><use transform="matrix(0.010850694444444444,0,0,0.010850694444444444,12.217881944444445,0)" xlink:href="#an"/><use transform="matrix(0.010850694444444444,0,0,0.010850694444444444,24.43576388888889,0)" xlink:href="#am"/><use transform="matrix(0.010850694444444444,0,0,0.010850694444444444,36.653645833333336,0)" xlink:href="#Y"/><use transform="matrix(0.010850694444444444,0,0,0.010850694444444444,48.87152777777778,0)" xlink:href="#ap"/></g><path fill="#fff" d="M326-836c85-116 174-186 344-186 265 0 348 227 348 502 0 332-168 532-492 532-71 0-132-7-192-22v420H160v-1414h155zm213 707c209 0 303-152 301-383-1-147-26-273-112-332-67-47-175-21-230 20-61 45-112 98-164 165v487c57 24 129 43 205 43" id="aq"/><path fill="#fff" d="M1090-1004L944 0H733c-58-174-124-340-174-522C506-344 444-174 387 0H182L37-1004h170c34 278 69 555 102 834 63-195 126-389 189-584h125c67 193 137 383 202 578 29-278 62-552 93-828h172" id="ar"/><g id="k"><use transform="matrix(0.010850694444444444,0,0,0.010850694444444444,0,0)" xlink:href="#aq"/><use transform="matrix(0.010850694444444444,0,0,0.010850694444444444,12.217881944444445,0)" xlink:href="#am"/><use transform="matrix(0.010850694444444444,0,0,0.010850694444444444,24.43576388888889,0)" xlink:href="#T"/><use transform="matrix(0.010850694444444444,0,0,0.010850694444444444,36.653645833333336,0)" xlink:href="#T"/><use transform="matrix(0.010850694444444444,0,0,0.010850694444444444,48.87152777777778,0)" xlink:href="#ar"/><use transform="matrix(0.010850694444444444,0,0,0.010850694444444444,61.08940972222222,0)" xlink:href="#ah"/><use transform="matrix(0.010850694444444444,0,0,0.010850694444444444,73.30729166666667,0)" xlink:href="#V"/><use transform="matrix(0.010850694444444444,0,0,0.010850694444444444,85.52517361111111,0)" xlink:href="#Z"/></g><g id="l"><use transform="matrix(0.010850694444444444,0,0,0.010850694444444444,0,0)" xlink:href="#ag"/><use transform="matrix(0.010850694444444444,0,0,0.010850694444444444,12.217881944444445,0)" xlink:href="#V"/><use transform="matrix(0.010850694444444444,0,0,0.010850694444444444,24.43576388888889,0)" xlink:href="#U"/><use transform="matrix(0.010850694444444444,0,0,0.010850694444444444,36.653645833333336,0)" xlink:href="#am"/><use transform="matrix(0.010850694444444444,0,0,0.010850694444444444,48.87152777777778,0)" xlink:href="#aj"/><use transform="matrix(0.010850694444444444,0,0,0.010850694444444444,61.08940972222222,0)" xlink:href="#U"/><use transform="matrix(0.010850694444444444,0,0,0.010850694444444444,73.30729166666667,0)" xlink:href="#Z"/><use transform="matrix(0.010850694444444444,0,0,0.010850694444444444,85.52517361111111,0)" xlink:href="#al"/><use transform="matrix(0.010850694444444444,0,0,0.010850694444444444,97.74305555555556,0)" xlink:href="#am"/><use transform="matrix(0.010850694444444444,0,0,0.010850694444444444,109.9609375,0)" xlink:href="#aj"/></g><g id="m"><use transform="matrix(0.010850694444444444,0,0,0.010850694444444444,0,0)" xlink:href="#Z"/><use transform="matrix(0.010850694444444444,0,0,0.010850694444444444,12.217881944444445,0)" xlink:href="#am"/><use transform="matrix(0.010850694444444444,0,0,0.010850694444444444,24.43576388888889,0)" xlink:href="#aj"/><use transform="matrix(0.010850694444444444,0,0,0.010850694444444444,36.653645833333336,0)" xlink:href="#U"/><use transform="matrix(0.010850694444444444,0,0,0.010850694444444444,48.87152777777778,0)" xlink:href="#aj"/><use transform="matrix(0.010850694444444444,0,0,0.010850694444444444,61.08940972222222,0)" xlink:href="#Y"/><use transform="matrix(0.010850694444444444,0,0,0.010850694444444444,73.30729166666667,0)" xlink:href="#an"/><use transform="matrix(0.010850694444444444,0,0,0.010850694444444444,85.52517361111111,0)" xlink:href="#U"/></g><g id="n"><use transform="matrix(0.010850694444444444,0,0,0.010850694444444444,0,0)" xlink:href="#S"/><use transform="matrix(0.010850694444444444,0,0,0.010850694444444444,12.217881944444445,0)" xlink:href="#aq"/><use transform="matrix(0.010850694444444444,0,0,0.010850694444444444,24.43576388888889,0)" xlink:href="#Z"/><use transform="matrix(0.010850694444444444,0,0,0.010850694444444444,36.653645833333336,0)" xlink:href="#am"/><use transform="matrix(0.010850694444444444,0,0,0.010850694444444444,48.87152777777778,0)" xlink:href="#aj"/><use transform="matrix(0.010850694444444444,0,0,0.010850694444444444,61.08940972222222,0)" xlink:href="#U"/><use transform="matrix(0.010850694444444444,0,0,0.010850694444444444,73.30729166666667,0)" xlink:href="#Z"/><use transform="matrix(0.010850694444444444,0,0,0.010850694444444444,85.52517361111111,0)" xlink:href="#al"/><use transform="matrix(0.010850694444444444,0,0,0.010850694444444444,97.74305555555556,0)" xlink:href="#am"/><use transform="matrix(0.010850694444444444,0,0,0.010850694444444444,109.9609375,0)" xlink:href="#aj"/></g><path fill="#fff" d="M1051-1251c-91-19-170-29-236-29-157 0-235 82-235 246v176h440v145H580V0H403v-713H80v-145h323v-166c0-267 139-401 418-401 69 0 146 8 230 24v150" id="as"/><g id="o"><use transform="matrix(0.010850694444444444,0,0,0.010850694444444444,0,0)" xlink:href="#aq"/><use transform="matrix(0.010850694444444444,0,0,0.010850694444444444,12.217881944444445,0)" xlink:href="#V"/><use transform="matrix(0.010850694444444444,0,0,0.010850694444444444,24.43576388888889,0)" xlink:href="#ah"/><use transform="matrix(0.010850694444444444,0,0,0.010850694444444444,36.653645833333336,0)" xlink:href="#as"/><use transform="matrix(0.010850694444444444,0,0,0.010850694444444444,48.87152777777778,0)" xlink:href="#Y"/><use transform="matrix(0.010850694444444444,0,0,0.010850694444444444,61.08940972222222,0)" xlink:href="#ap"/><use transform="matrix(0.010850694444444444,0,0,0.010850694444444444,73.30729166666667,0)" xlink:href="#U"/><use transform="matrix(0.010850694444444444,0,0,0.010850694444444444,85.52517361111111,0)" xlink:href="#T"/></g><g id="p"><use transform="matrix(0.010850694444444444,0,0,0.010850694444444444,0,0)" xlink:href="#S"/><use transform="matrix(0.010850694444444444,0,0,0.010850694444444444,12.217881944444445,0)" xlink:href="#T"/><use transform="matrix(0.010850694444444444,0,0,0.010850694444444444,24.43576388888889,0)" xlink:href="#U"/><use transform="matrix(0.010850694444444444,0,0,0.010850694444444444,36.653645833333336,0)" xlink:href="#V"/><use transform="matrix(0.010850694444444444,0,0,0.010850694444444444,48.87152777777778,0)" xlink:href="#al"/><use transform="matrix(0.010850694444444444,0,0,0.010850694444444444,61.08940972222222,0)" xlink:href="#Y"/><use transform="matrix(0.010850694444444444,0,0,0.010850694444444444,73.30729166666667,0)" xlink:href="#Z"/></g><path fill="#fff" d="M326-838c84-114 176-184 344-184 265 0 348 227 348 502 0 329-166 532-492 532-138 0-260-27-366-71v-1354h174c-1 194 4 392-8 575zm213 709c218 0 301-154 301-383 0-147-26-273-112-332-67-47-175-21-230 20-61 45-112 98-164 165v487c59 23 130 43 205 43" id="at"/><g id="q"><use transform="matrix(0.010850694444444444,0,0,0.010850694444444444,0,0)" xlink:href="#at"/><use transform="matrix(0.010850694444444444,0,0,0.010850694444444444,12.217881944444445,0)" xlink:href="#Y"/><use transform="matrix(0.010850694444444444,0,0,0.010850694444444444,24.43576388888889,0)" xlink:href="#ah"/></g><g id="r"><use transform="matrix(0.010850694444444444,0,0,0.010850694444444444,0,0)" xlink:href="#ar"/><use transform="matrix(0.010850694444444444,0,0,0.010850694444444444,12.217881944444445,0)" xlink:href="#U"/><use transform="matrix(0.010850694444444444,0,0,0.010850694444444444,24.43576388888889,0)" xlink:href="#at"/><use transform="matrix(0.010850694444444444,0,0,0.010850694444444444,36.653645833333336,0)" xlink:href="#T"/><use transform="matrix(0.010850694444444444,0,0,0.010850694444444444,48.87152777777778,0)" xlink:href="#Y"/><use transform="matrix(0.010850694444444444,0,0,0.010850694444444444,61.08940972222222,0)" xlink:href="#aj"/><use transform="matrix(0.010850694444444444,0,0,0.010850694444444444,73.30729166666667,0)" xlink:href="#U"/></g><g id="s"><use transform="matrix(0.010850694444444444,0,0,0.010850694444444444,0,0)" xlink:href="#aq"/><use transform="matrix(0.010850694444444444,0,0,0.010850694444444444,12.217881944444445,0)" xlink:href="#ah"/><use transform="matrix(0.010850694444444444,0,0,0.010850694444444444,24.43576388888889,0)" xlink:href="#T"/><use transform="matrix(0.010850694444444444,0,0,0.010850694444444444,36.653645833333336,0)" xlink:href="#aj"/><use transform="matrix(0.010850694444444444,0,0,0.010850694444444444,48.87152777777778,0)" xlink:href="#T"/></g><g id="t"><use transform="matrix(0.010850694444444444,0,0,0.010850694444444444,0,0)" xlink:href="#aj"/><use transform="matrix(0.010850694444444444,0,0,0.010850694444444444,12.217881944444445,0)" xlink:href="#Y"/><use transform="matrix(0.010850694444444444,0,0,0.010850694444444444,24.43576388888889,0)" xlink:href="#aj"/><use transform="matrix(0.010850694444444444,0,0,0.010850694444444444,36.653645833333336,0)" xlink:href="#ap"/><use transform="matrix(0.010850694444444444,0,0,0.010850694444444444,48.87152777777778,0)" xlink:href="#U"/></g><g id="u"><use transform="matrix(0.010850694444444444,0,0,0.010850694444444444,0,0)" xlink:href="#ag"/><use transform="matrix(0.010850694444444444,0,0,0.010850694444444444,12.217881944444445,0)" xlink:href="#ah"/><use transform="matrix(0.010850694444444444,0,0,0.010850694444444444,24.43576388888889,0)" xlink:href="#ai"/><use transform="matrix(0.010850694444444444,0,0,0.010850694444444444,36.653645833333336,0)" xlink:href="#aj"/><use transform="matrix(0.010850694444444444,0,0,0.010850694444444444,48.87152777777778,0)" xlink:href="#U"/><use transform="matrix(0.010850694444444444,0,0,0.010850694444444444,61.08940972222222,0)" xlink:href="#ai"/><use transform="matrix(0.010850694444444444,0,0,0.010850694444444444,73.30729166666667,0)" xlink:href="#aj"/></g><g id="v"><use transform="matrix(0.010850694444444444,0,0,0.010850694444444444,0,0)" xlink:href="#ag"/><use transform="matrix(0.010850694444444444,0,0,0.010850694444444444,12.217881944444445,0)" xlink:href="#ah"/><use transform="matrix(0.010850694444444444,0,0,0.010850694444444444,24.43576388888889,0)" xlink:href="#an"/><use transform="matrix(0.010850694444444444,0,0,0.010850694444444444,36.653645833333336,0)" xlink:href="#an"/><use transform="matrix(0.010850694444444444,0,0,0.010850694444444444,48.87152777777778,0)" xlink:href="#U"/><use transform="matrix(0.010850694444444444,0,0,0.010850694444444444,61.08940972222222,0)" xlink:href="#ai"/><use transform="matrix(0.010850694444444444,0,0,0.010850694444444444,73.30729166666667,0)" xlink:href="#aj"/><use transform="matrix(0.010850694444444444,0,0,0.010850694444444444,85.52517361111111,0)" xlink:href="#T"/></g><g id="w"><use transform="matrix(0.010850694444444444,0,0,0.010850694444444444,0,0)" xlink:href="#ag"/><use transform="matrix(0.010850694444444444,0,0,0.010850694444444444,12.217881944444445,0)" xlink:href="#ah"/><use transform="matrix(0.010850694444444444,0,0,0.010850694444444444,24.43576388888889,0)" xlink:href="#an"/><use transform="matrix(0.010850694444444444,0,0,0.010850694444444444,36.653645833333336,0)" xlink:href="#an"/><use transform="matrix(0.010850694444444444,0,0,0.010850694444444444,48.87152777777778,0)" xlink:href="#U"/><use transform="matrix(0.010850694444444444,0,0,0.010850694444444444,61.08940972222222,0)" xlink:href="#ai"/><use transform="matrix(0.010850694444444444,0,0,0.010850694444444444,73.30729166666667,0)" xlink:href="#aj"/><use transform="matrix(0.010850694444444444,0,0,0.010850694444444444,85.52517361111111,0)" xlink:href="#am"/><use transform="matrix(0.010850694444444444,0,0,0.010850694444444444,97.74305555555556,0)" xlink:href="#at"/><use transform="matrix(0.010850694444444444,0,0,0.010850694444444444,109.9609375,0)" xlink:href="#ap"/><use transform="matrix(0.010850694444444444,0,0,0.010850694444444444,122.17881944444444,0)" xlink:href="#U"/><use transform="matrix(0.010850694444444444,0,0,0.010850694444444444,134.39670138888889,0)" xlink:href="#al"/><use transform="matrix(0.010850694444444444,0,0,0.010850694444444444,146.61458333333334,0)" xlink:href="#Y"/><use transform="matrix(0.010850694444444444,0,0,0.010850694444444444,158.8324652777778,0)" xlink:href="#Z"/></g><g id="x"><use transform="matrix(0.010850694444444444,0,0,0.010850694444444444,0,0)" xlink:href="#ag"/><use transform="matrix(0.010850694444444444,0,0,0.010850694444444444,12.217881944444445,0)" xlink:href="#ah"/><use transform="matrix(0.010850694444444444,0,0,0.010850694444444444,24.43576388888889,0)" xlink:href="#an"/><use transform="matrix(0.010850694444444444,0,0,0.010850694444444444,36.653645833333336,0)" xlink:href="#an"/><use transform="matrix(0.010850694444444444,0,0,0.010850694444444444,48.87152777777778,0)" xlink:href="#U"/><use transform="matrix(0.010850694444444444,0,0,0.010850694444444444,61.08940972222222,0)" xlink:href="#ai"/><use transform="matrix(0.010850694444444444,0,0,0.010850694444444444,73.30729166666667,0)" xlink:href="#aj"/><use transform="matrix(0.010850694444444444,0,0,0.010850694444444444,85.52517361111111,0)" xlink:href="#am"/><use transform="matrix(0.010850694444444444,0,0,0.010850694444444444,97.74305555555556,0)" xlink:href="#at"/><use transform="matrix(0.010850694444444444,0,0,0.010850694444444444,109.9609375,0)" xlink:href="#ap"/><use transform="matrix(0.010850694444444444,0,0,0.010850694444444444,122.17881944444444,0)" xlink:href="#U"/><use transform="matrix(0.010850694444444444,0,0,0.010850694444444444,134.39670138888889,0)" xlink:href="#al"/><use transform="matrix(0.010850694444444444,0,0,0.010850694444444444,146.61458333333334,0)" xlink:href="#aj"/><use transform="matrix(0.010850694444444444,0,0,0.010850694444444444,158.8324652777778,0)" xlink:href="#ak"/><use transform="matrix(0.010850694444444444,0,0,0.010850694444444444,171.05034722222226,0)" xlink:href="#aq"/><use transform="matrix(0.010850694444444444,0,0,0.010850694444444444,183.26822916666669,0)" xlink:href="#U"/></g><g id="y"><use transform="matrix(0.010850694444444444,0,0,0.010850694444444444,0,0)" xlink:href="#at"/><use transform="matrix(0.010850694444444444,0,0,0.010850694444444444,12.217881944444445,0)" xlink:href="#ah"/><use transform="matrix(0.010850694444444444,0,0,0.010850694444444444,24.43576388888889,0)" xlink:href="#Z"/><use transform="matrix(0.010850694444444444,0,0,0.010850694444444444,36.653645833333336,0)" xlink:href="#ak"/></g><path fill="#fff" d="M549-1022c47-1 96 7 131 18h364v142H883c35 44 59 106 59 182 0 231-159 343-393 350-77 2-160-19-205-47-35 43-74 130-8 172 25 16 56 25 96 27 184 11 397-8 512 78 55 41 96 98 96 188 0 250-225 332-493 332-199 0-357-36-428-156-18-31-25-66-25-104C94 39 153-14 233-74c-59-28-100-80-100-162 0-98 56-163 103-221-46-55-84-114-80-215 8-230 158-343 393-350zM389-27c-58 40-110 81-110 172 0 47 25 81 74 103s118 33 206 33c156 0 295-34 295-175C854 5 765-14 651-18zm160-864c-135 0-217 83-217 215 0 135 82 215 217 215 136 0 217-83 217-215 0-135-82-215-217-215" id="au"/><g id="z"><use transform="matrix(0.010850694444444444,0,0,0.010850694444444444,0,0)" xlink:href="#aj"/><use transform="matrix(0.010850694444444444,0,0,0.010850694444444444,12.217881944444445,0)" xlink:href="#am"/><use transform="matrix(0.010850694444444444,0,0,0.010850694444444444,24.43576388888889,0)" xlink:href="#au"/><use transform="matrix(0.010850694444444444,0,0,0.010850694444444444,36.653645833333336,0)" xlink:href="#T"/></g><g id="A"><use transform="matrix(0.010850694444444444,0,0,0.010850694444444444,0,0)" xlink:href="#aj"/><use transform="matrix(0.010850694444444444,0,0,0.010850694444444444,12.217881944444445,0)" xlink:href="#am"/><use transform="matrix(0.010850694444444444,0,0,0.010850694444444444,24.43576388888889,0)" xlink:href="#au"/><use transform="matrix(0.010850694444444444,0,0,0.010850694444444444,36.653645833333336,0)" xlink:href="#au"/><use transform="matrix(0.010850694444444444,0,0,0.010850694444444444,48.87152777777778,0)" xlink:href="#am"/><use transform="matrix(0.010850694444444444,0,0,0.010850694444444444,61.08940972222222,0)" xlink:href="#at"/><use transform="matrix(0.010850694444444444,0,0,0.010850694444444444,73.30729166666667,0)" xlink:href="#ap"/><use transform="matrix(0.010850694444444444,0,0,0.010850694444444444,85.52517361111111,0)" xlink:href="#U"/><use transform="matrix(0.010850694444444444,0,0,0.010850694444444444,97.74305555555556,0)" xlink:href="#T"/></g><g id="B"><use transform="matrix(0.010850694444444444,0,0,0.010850694444444444,0,0)" xlink:href="#aj"/><use transform="matrix(0.010850694444444444,0,0,0.010850694444444444,12.217881944444445,0)" xlink:href="#am"/><use transform="matrix(0.010850694444444444,0,0,0.010850694444444444,24.43576388888889,0)" xlink:href="#au"/><use transform="matrix(0.010850694444444444,0,0,0.010850694444444444,36.653645833333336,0)" xlink:href="#al"/><use transform="matrix(0.010850694444444444,0,0,0.010850694444444444,48.87152777777778,0)" xlink:href="#Y"/><use transform="matrix(0.010850694444444444,0,0,0.010850694444444444,61.08940972222222,0)" xlink:href="#Z"/></g><path fill="#fff" d="M547-1325c244 5 391 136 391 381 0 189-86 290-182 398-111 126-261 258-383 380h635V0H147v-156c152-154 333-318 473-478 75-86 130-152 130-298 0-148-75-239-226-239-126 0-207 65-276 133l-96-115c94-96 212-175 395-172" id="av"/><g id="C"><use transform="matrix(0.010850694444444444,0,0,0.010850694444444444,0,0)" xlink:href="#ae"/><use transform="matrix(0.010850694444444444,0,0,0.010850694444444444,12.217881944444445,0)" xlink:href="#X"/><use transform="matrix(0.010850694444444444,0,0,0.010850694444444444,24.43576388888889,0)" xlink:href="#av"/></g><g id="D"><use transform="matrix(0.010850694444444444,0,0,0.010850694444444444,0,0)" xlink:href="#aj"/><use transform="matrix(0.010850694444444444,0,0,0.010850694444444444,12.217881944444445,0)" xlink:href="#am"/><use transform="matrix(0.010850694444444444,0,0,0.010850694444444444,24.43576388888889,0)" xlink:href="#au"/><use transform="matrix(0.010850694444444444,0,0,0.010850694444444444,36.653645833333336,0)" xlink:href="#au"/><use transform="matrix(0.010850694444444444,0,0,0.010850694444444444,48.87152777777778,0)" xlink:href="#am"/><use transform="matrix(0.010850694444444444,0,0,0.010850694444444444,61.08940972222222,0)" xlink:href="#at"/><use transform="matrix(0.010850694444444444,0,0,0.010850694444444444,73.30729166666667,0)" xlink:href="#ap"/><use transform="matrix(0.010850694444444444,0,0,0.010850694444444444,85.52517361111111,0)" xlink:href="#U"/><use transform="matrix(0.010850694444444444,0,0,0.010850694444444444,97.74305555555556,0)" xlink:href="#al"/><use transform="matrix(0.010850694444444444,0,0,0.010850694444444444,109.9609375,0)" xlink:href="#Y"/><use transform="matrix(0.010850694444444444,0,0,0.010850694444444444,122.17881944444444,0)" xlink:href="#Z"/></g><g id="E"><use transform="matrix(0.010850694444444444,0,0,0.010850694444444444,0,0)" xlink:href="#aj"/><use transform="matrix(0.010850694444444444,0,0,0.010850694444444444,12.217881944444445,0)" xlink:href="#am"/><use transform="matrix(0.010850694444444444,0,0,0.010850694444444444,24.43576388888889,0)" xlink:href="#au"/><use transform="matrix(0.010850694444444444,0,0,0.010850694444444444,36.653645833333336,0)" xlink:href="#au"/><use transform="matrix(0.010850694444444444,0,0,0.010850694444444444,48.87152777777778,0)" xlink:href="#am"/><use transform="matrix(0.010850694444444444,0,0,0.010850694444444444,61.08940972222222,0)" xlink:href="#at"/><use transform="matrix(0.010850694444444444,0,0,0.010850694444444444,73.30729166666667,0)" xlink:href="#ap"/><use transform="matrix(0.010850694444444444,0,0,0.010850694444444444,85.52517361111111,0)" xlink:href="#U"/><use transform="matrix(0.010850694444444444,0,0,0.010850694444444444,97.74305555555556,0)" xlink:href="#al"/><use transform="matrix(0.010850694444444444,0,0,0.010850694444444444,109.9609375,0)" xlink:href="#aj"/><use transform="matrix(0.010850694444444444,0,0,0.010850694444444444,122.17881944444444,0)" xlink:href="#ak"/><use transform="matrix(0.010850694444444444,0,0,0.010850694444444444,134.39670138888889,0)" xlink:href="#aq"/><use transform="matrix(0.010850694444444444,0,0,0.010850694444444444,146.61458333333334,0)" xlink:href="#U"/></g><g id="F"><use transform="matrix(0.010850694444444444,0,0,0.010850694444444444,0,0)" xlink:href="#ag"/><use transform="matrix(0.010850694444444444,0,0,0.010850694444444444,12.217881944444445,0)" xlink:href="#ah"/><use transform="matrix(0.010850694444444444,0,0,0.010850694444444444,24.43576388888889,0)" xlink:href="#S"/><use transform="matrix(0.010850694444444444,0,0,0.010850694444444444,36.653645833333336,0)" xlink:href="#ai"/><use transform="matrix(0.010850694444444444,0,0,0.010850694444444444,48.87152777777778,0)" xlink:href="#aj"/><use transform="matrix(0.010850694444444444,0,0,0.010850694444444444,61.08940972222222,0)" xlink:href="#V"/><use transform="matrix(0.010850694444444444,0,0,0.010850694444444444,73.30729166666667,0)" xlink:href="#Y"/><use transform="matrix(0.010850694444444444,0,0,0.010850694444444444,85.52517361111111,0)" xlink:href="#U"/><use transform="matrix(0.010850694444444444,0,0,0.010850694444444444,97.74305555555556,0)" xlink:href="#T"/></g><g id="G"><use transform="matrix(0.010850694444444444,0,0,0.010850694444444444,0,0)" xlink:href="#ah"/><use transform="matrix(0.010850694444444444,0,0,0.010850694444444444,12.217881944444445,0)" xlink:href="#V"/><use transform="matrix(0.010850694444444444,0,0,0.010850694444444444,24.43576388888889,0)" xlink:href="#Z"/><use transform="matrix(0.010850694444444444,0,0,0.010850694444444444,36.653645833333336,0)" xlink:href="#U"/><use transform="matrix(0.010850694444444444,0,0,0.010850694444444444,48.87152777777778,0)" xlink:href="#V"/><use transform="matrix(0.010850694444444444,0,0,0.010850694444444444,61.08940972222222,0)" xlink:href="#al"/><use transform="matrix(0.010850694444444444,0,0,0.010850694444444444,73.30729166666667,0)" xlink:href="#aq"/><use transform="matrix(0.010850694444444444,0,0,0.010850694444444444,85.52517361111111,0)" xlink:href="#V"/><use transform="matrix(0.010850694444444444,0,0,0.010850694444444444,97.74305555555556,0)" xlink:href="#ah"/><use transform="matrix(0.010850694444444444,0,0,0.010850694444444444,109.9609375,0)" xlink:href="#Z"/><use transform="matrix(0.010850694444444444,0,0,0.010850694444444444,122.17881944444444,0)" xlink:href="#S"/><use transform="matrix(0.010850694444444444,0,0,0.010850694444444444,134.39670138888889,0)" xlink:href="#ag"/><use transform="matrix(0.010850694444444444,0,0,0.010850694444444444,146.61458333333334,0)" xlink:href="#aj"/></g><g id="H"><use transform="matrix(0.010850694444444444,0,0,0.010850694444444444,0,0)" xlink:href="#ah"/><use transform="matrix(0.010850694444444444,0,0,0.010850694444444444,12.217881944444445,0)" xlink:href="#V"/><use transform="matrix(0.010850694444444444,0,0,0.010850694444444444,24.43576388888889,0)" xlink:href="#Z"/><use transform="matrix(0.010850694444444444,0,0,0.010850694444444444,36.653645833333336,0)" xlink:href="#U"/><use transform="matrix(0.010850694444444444,0,0,0.010850694444444444,48.87152777777778,0)" xlink:href="#V"/><use transform="matrix(0.010850694444444444,0,0,0.010850694444444444,61.08940972222222,0)" xlink:href="#al"/><use transform="matrix(0.010850694444444444,0,0,0.010850694444444444,73.30729166666667,0)" xlink:href="#Y"/><use transform="matrix(0.010850694444444444,0,0,0.010850694444444444,85.52517361111111,0)" xlink:href="#Z"/></g><g id="I"><use transform="matrix(0.010850694444444444,0,0,0.010850694444444444,0,0)" xlink:href="#aq"/><use transform="matrix(0.010850694444444444,0,0,0.010850694444444444,12.217881944444445,0)" xlink:href="#V"/><use transform="matrix(0.010850694444444444,0,0,0.010850694444444444,24.43576388888889,0)" xlink:href="#ah"/><use transform="matrix(0.010850694444444444,0,0,0.010850694444444444,36.653645833333336,0)" xlink:href="#Z"/><use transform="matrix(0.010850694444444444,0,0,0.010850694444444444,48.87152777777778,0)" xlink:href="#S"/><use transform="matrix(0.010850694444444444,0,0,0.010850694444444444,61.08940972222222,0)" xlink:href="#ag"/><use transform="matrix(0.010850694444444444,0,0,0.010850694444444444,73.30729166666667,0)" xlink:href="#aj"/><use transform="matrix(0.010850694444444444,0,0,0.010850694444444444,85.52517361111111,0)" xlink:href="#al"/><use transform="matrix(0.010850694444444444,0,0,0.010850694444444444,97.74305555555556,0)" xlink:href="#Y"/><use transform="matrix(0.010850694444444444,0,0,0.010850694444444444,109.9609375,0)" xlink:href="#Z"/></g><path fill="#fff" d="M600-1016c80 0 140 13 207 33l154-39V410H786c0-201-3-405 9-594C700-49 588 18 457 18c-266 0-348-226-348-499 0-326 160-535 491-535zm-12 142c-214 3-302 153-301 382 1 150 25 280 115 336 79 49 155 27 230-34 49-39 100-98 154-175v-466c-52-24-121-43-198-43" id="aw"/><g id="J"><use transform="matrix(0.010850694444444444,0,0,0.010850694444444444,0,0)" xlink:href="#aw"/><use transform="matrix(0.010850694444444444,0,0,0.010850694444444444,12.217881944444445,0)" xlink:href="#S"/><use transform="matrix(0.010850694444444444,0,0,0.010850694444444444,24.43576388888889,0)" xlink:href="#am"/><use transform="matrix(0.010850694444444444,0,0,0.010850694444444444,36.653645833333336,0)" xlink:href="#ai"/><use transform="matrix(0.010850694444444444,0,0,0.010850694444444444,48.87152777777778,0)" xlink:href="#aj"/><use transform="matrix(0.010850694444444444,0,0,0.010850694444444444,61.08940972222222,0)" xlink:href="#Y"/><use transform="matrix(0.010850694444444444,0,0,0.010850694444444444,73.30729166666667,0)" xlink:href="#aj"/><use transform="matrix(0.010850694444444444,0,0,0.010850694444444444,85.52517361111111,0)" xlink:href="#ak"/></g><g id="K"><use transform="matrix(0.010850694444444444,0,0,0.010850694444444444,0,0)" xlink:href="#Y"/><use transform="matrix(0.010850694444444444,0,0,0.010850694444444444,12.217881944444445,0)" xlink:href="#ai"/><use transform="matrix(0.010850694444444444,0,0,0.010850694444444444,24.43576388888889,0)" xlink:href="#aj"/></g><g id="L"><use transform="matrix(0.010850694444444444,0,0,0.010850694444444444,0,0)" xlink:href="#S"/><use transform="matrix(0.010850694444444444,0,0,0.010850694444444444,12.217881944444445,0)" xlink:href="#ai"/><use transform="matrix(0.010850694444444444,0,0,0.010850694444444444,24.43576388888889,0)" xlink:href="#Y"/><use transform="matrix(0.010850694444444444,0,0,0.010850694444444444,36.653645833333336,0)" xlink:href="#aj"/><use transform="matrix(0.010850694444444444,0,0,0.010850694444444444,48.87152777777778,0)" xlink:href="#al"/><use transform="matrix(0.010850694444444444,0,0,0.010850694444444444,61.08940972222222,0)" xlink:href="#aq"/><use transform="matrix(0.010850694444444444,0,0,0.010850694444444444,73.30729166666667,0)" xlink:href="#V"/><use transform="matrix(0.010850694444444444,0,0,0.010850694444444444,85.52517361111111,0)" xlink:href="#Y"/><use transform="matrix(0.010850694444444444,0,0,0.010850694444444444,97.74305555555556,0)" xlink:href="#ag"/><use transform="matrix(0.010850694444444444,0,0,0.010850694444444444,109.9609375,0)" xlink:href="#U"/></g><g id="M"><use transform="matrix(0.010850694444444444,0,0,0.010850694444444444,0,0)" xlink:href="#Z"/><use transform="matrix(0.010850694444444444,0,0,0.010850694444444444,12.217881944444445,0)" xlink:href="#U"/><use transform="matrix(0.010850694444444444,0,0,0.010850694444444444,24.43576388888889,0)" xlink:href="#ag"/><use transform="matrix(0.010850694444444444,0,0,0.010850694444444444,36.653645833333336,0)" xlink:href="#Y"/><use transform="matrix(0.010850694444444444,0,0,0.010850694444444444,48.87152777777778,0)" xlink:href="#an"/><use transform="matrix(0.010850694444444444,0,0,0.010850694444444444,61.08940972222222,0)" xlink:href="#am"/><use transform="matrix(0.010850694444444444,0,0,0.010850694444444444,73.30729166666667,0)" xlink:href="#ap"/></g><g id="N"><use transform="matrix(0.010850694444444444,0,0,0.010850694444444444,0,0)" xlink:href="#aq"/><use transform="matrix(0.010850694444444444,0,0,0.010850694444444444,12.217881944444445,0)" xlink:href="#V"/><use transform="matrix(0.010850694444444444,0,0,0.010850694444444444,24.43576388888889,0)" xlink:href="#ah"/><use transform="matrix(0.010850694444444444,0,0,0.010850694444444444,36.653645833333336,0)" xlink:href="#Z"/><use transform="matrix(0.010850694444444444,0,0,0.010850694444444444,48.87152777777778,0)" xlink:href="#S"/><use transform="matrix(0.010850694444444444,0,0,0.010850694444444444,61.08940972222222,0)" xlink:href="#ag"/><use transform="matrix(0.010850694444444444,0,0,0.010850694444444444,73.30729166666667,0)" xlink:href="#aj"/><use transform="matrix(0.010850694444444444,0,0,0.010850694444444444,85.52517361111111,0)" xlink:href="#T"/></g><path fill="#fff" d="M1063 0H824L356-538V0H182v-1413h174v868l451-459h230L566-541" id="ax"/><g id="O"><use transform="matrix(0.010850694444444444,0,0,0.010850694444444444,0,0)" xlink:href="#T"/><use transform="matrix(0.010850694444444444,0,0,0.010850694444444444,12.217881944444445,0)" xlink:href="#ax"/><use transform="matrix(0.010850694444444444,0,0,0.010850694444444444,24.43576388888889,0)" xlink:href="#S"/></g><g id="P"><use transform="matrix(0.010850694444444444,0,0,0.010850694444444444,0,0)" xlink:href="#aq"/><use transform="matrix(0.010850694444444444,0,0,0.010850694444444444,12.217881944444445,0)" xlink:href="#V"/><use transform="matrix(0.010850694444444444,0,0,0.010850694444444444,24.43576388888889,0)" xlink:href="#Y"/><use transform="matrix(0.010850694444444444,0,0,0.010850694444444444,36.653645833333336,0)" xlink:href="#ag"/><use transform="matrix(0.010850694444444444,0,0,0.010850694444444444,48.87152777777778,0)" xlink:href="#U"/></g><g id="Q"><use transform="matrix(0.010850694444444444,0,0,0.010850694444444444,0,0)" xlink:href="#ah"/><use transform="matrix(0.010850694444444444,0,0,0.010850694444444444,12.217881944444445,0)" xlink:href="#V"/><use transform="matrix(0.010850694444444444,0,0,0.010850694444444444,24.43576388888889,0)" xlink:href="#Z"/><use transform="matrix(0.010850694444444444,0,0,0.010850694444444444,36.653645833333336,0)" xlink:href="#U"/><use transform="matrix(0.010850694444444444,0,0,0.010850694444444444,48.87152777777778,0)" xlink:href="#V"/><use transform="matrix(0.010850694444444444,0,0,0.010850694444444444,61.08940972222222,0)" xlink:href="#T"/></g><g id="R"><use transform="matrix(0.010850694444444444,0,0,0.010850694444444444,0,0)" xlink:href="#aj"/><use transform="matrix(0.010850694444444444,0,0,0.010850694444444444,12.217881944444445,0)" xlink:href="#ah"/><use transform="matrix(0.010850694444444444,0,0,0.010850694444444444,24.43576388888889,0)" xlink:href="#aj"/><use transform="matrix(0.010850694444444444,0,0,0.010850694444444444,36.653645833333336,0)" xlink:href="#am"/><use transform="matrix(0.010850694444444444,0,0,0.010850694444444444,48.87152777777778,0)" xlink:href="#ap"/><use transform="matrix(0.010850694444444444,0,0,0.010850694444444444,61.08940972222222,0)" xlink:href="#al"/><use transform="matrix(0.010850694444444444,0,0,0.010850694444444444,73.30729166666667,0)" xlink:href="#am"/><use transform="matrix(0.010850694444444444,0,0,0.010850694444444444,85.52517361111111,0)" xlink:href="#an"/><use transform="matrix(0.010850694444444444,0,0,0.010850694444444444,97.74305555555556,0)" xlink:href="#ah"/><use transform="matrix(0.010850694444444444,0,0,0.010850694444444444,109.9609375,0)" xlink:href="#S"/><use transform="matrix(0.010850694444444444,0,0,0.010850694444444444,122.17881944444444,0)" xlink:href="#ai"/><use transform="matrix(0.010850694444444444,0,0,0.010850694444444444,134.39670138888889,0)" xlink:href="#aj"/></g></defs></g></svg>